<mxfile host="app.diagrams.net" modified="2024-02-28T06:26:53.640Z" agent="Mozilla/5.0 (Windows NT 10.0; Win64; x64) AppleWebKit/537.36 (KHTML, like Gecko) Chrome/121.0.0.0 Safari/537.36" etag="8rvSXkcwPWQRLgPvuVF-" version="23.1.6" type="device">
  <diagram id="R2lEEEUBdFMjLlhIrx00" name="Page-1">
    <mxGraphModel dx="5024" dy="2803" grid="1" gridSize="10" guides="1" tooltips="1" connect="1" arrows="1" fold="1" page="1" pageScale="1" pageWidth="850" pageHeight="1100" math="0" shadow="0" extFonts="Permanent Marker^https://fonts.googleapis.com/css?family=Permanent+Marker">
      <root>
        <mxCell id="0" />
        <mxCell id="1" parent="0" />
        <mxCell id="KTGz2EW0Z5FNE_z3Yaa0-1" value="&lt;b&gt;Candidate&lt;/b&gt;" style="rounded=0;whiteSpace=wrap;html=1;" parent="1" vertex="1">
          <mxGeometry x="180" y="220" width="120" height="60" as="geometry" />
        </mxCell>
        <mxCell id="KTGz2EW0Z5FNE_z3Yaa0-2" value="&lt;b&gt;performs&lt;/b&gt;" style="rhombus;whiteSpace=wrap;html=1;" parent="1" vertex="1">
          <mxGeometry x="470" y="190" width="80" height="80" as="geometry" />
        </mxCell>
        <mxCell id="KTGz2EW0Z5FNE_z3Yaa0-3" value="&lt;b&gt;&lt;u&gt;Candidate ID&lt;/u&gt;&lt;/b&gt;" style="ellipse;whiteSpace=wrap;html=1;" parent="1" vertex="1">
          <mxGeometry x="-80" y="-60" width="110" height="80" as="geometry" />
        </mxCell>
        <mxCell id="KTGz2EW0Z5FNE_z3Yaa0-4" value="" style="endArrow=none;html=1;rounded=0;entryX=1;entryY=0.5;entryDx=0;entryDy=0;exitX=0;exitY=0.5;exitDx=0;exitDy=0;" parent="1" source="KTGz2EW0Z5FNE_z3Yaa0-1" target="KTGz2EW0Z5FNE_z3Yaa0-3" edge="1">
          <mxGeometry width="50" height="50" relative="1" as="geometry">
            <mxPoint x="400" y="440" as="sourcePoint" />
            <mxPoint x="450" y="390" as="targetPoint" />
            <Array as="points" />
          </mxGeometry>
        </mxCell>
        <mxCell id="KTGz2EW0Z5FNE_z3Yaa0-5" value="&lt;b&gt;Name&amp;nbsp;&lt;/b&gt;" style="ellipse;whiteSpace=wrap;html=1;" parent="1" vertex="1">
          <mxGeometry x="140" y="10" width="120" height="80" as="geometry" />
        </mxCell>
        <mxCell id="KTGz2EW0Z5FNE_z3Yaa0-6" value="" style="endArrow=none;html=1;rounded=0;entryX=0.5;entryY=1;entryDx=0;entryDy=0;exitX=0.5;exitY=0;exitDx=0;exitDy=0;" parent="1" source="KTGz2EW0Z5FNE_z3Yaa0-1" target="KTGz2EW0Z5FNE_z3Yaa0-5" edge="1">
          <mxGeometry width="50" height="50" relative="1" as="geometry">
            <mxPoint x="230" y="400" as="sourcePoint" />
            <mxPoint x="280" y="350" as="targetPoint" />
          </mxGeometry>
        </mxCell>
        <mxCell id="KTGz2EW0Z5FNE_z3Yaa0-7" value="&lt;b&gt;Party Affiliation&lt;/b&gt;" style="ellipse;whiteSpace=wrap;html=1;" parent="1" vertex="1">
          <mxGeometry x="-100" y="90" width="120" height="80" as="geometry" />
        </mxCell>
        <mxCell id="KTGz2EW0Z5FNE_z3Yaa0-8" value="" style="endArrow=none;html=1;rounded=0;entryX=0;entryY=0.833;entryDx=0;entryDy=0;entryPerimeter=0;exitX=0.989;exitY=0.284;exitDx=0;exitDy=0;exitPerimeter=0;" parent="1" source="KTGz2EW0Z5FNE_z3Yaa0-7" target="KTGz2EW0Z5FNE_z3Yaa0-1" edge="1">
          <mxGeometry width="50" height="50" relative="1" as="geometry">
            <mxPoint x="80" y="460" as="sourcePoint" />
            <mxPoint x="130" y="410" as="targetPoint" />
          </mxGeometry>
        </mxCell>
        <mxCell id="KTGz2EW0Z5FNE_z3Yaa0-9" value="&lt;b&gt;Campaign Platform&lt;/b&gt;" style="ellipse;whiteSpace=wrap;html=1;" parent="1" vertex="1">
          <mxGeometry x="-80" y="190" width="120" height="80" as="geometry" />
        </mxCell>
        <mxCell id="KTGz2EW0Z5FNE_z3Yaa0-10" value="" style="endArrow=none;html=1;rounded=0;entryX=0;entryY=1;entryDx=0;entryDy=0;exitX=0.979;exitY=0.367;exitDx=0;exitDy=0;exitPerimeter=0;" parent="1" source="KTGz2EW0Z5FNE_z3Yaa0-9" target="KTGz2EW0Z5FNE_z3Yaa0-1" edge="1">
          <mxGeometry width="50" height="50" relative="1" as="geometry">
            <mxPoint x="200" y="530" as="sourcePoint" />
            <mxPoint x="250" y="480" as="targetPoint" />
          </mxGeometry>
        </mxCell>
        <mxCell id="KTGz2EW0Z5FNE_z3Yaa0-12" value="" style="endArrow=none;html=1;rounded=0;entryX=0.75;entryY=0;entryDx=0;entryDy=0;exitX=0.5;exitY=1;exitDx=0;exitDy=0;" parent="1" source="KTGz2EW0Z5FNE_z3Yaa0-112" target="KTGz2EW0Z5FNE_z3Yaa0-1" edge="1">
          <mxGeometry width="50" height="50" relative="1" as="geometry">
            <mxPoint x="440" y="350" as="sourcePoint" />
            <mxPoint x="340" y="470" as="targetPoint" />
          </mxGeometry>
        </mxCell>
        <mxCell id="KTGz2EW0Z5FNE_z3Yaa0-15" value="&lt;b&gt;Campaign&lt;/b&gt;" style="rounded=0;whiteSpace=wrap;html=1;" parent="1" vertex="1">
          <mxGeometry x="530" y="400" width="120" height="60" as="geometry" />
        </mxCell>
        <mxCell id="KTGz2EW0Z5FNE_z3Yaa0-17" value="" style="endArrow=none;html=1;rounded=0;exitX=0.555;exitY=-0.072;exitDx=0;exitDy=0;exitPerimeter=0;" parent="1" source="KTGz2EW0Z5FNE_z3Yaa0-15" target="KTGz2EW0Z5FNE_z3Yaa0-19" edge="1">
          <mxGeometry width="50" height="50" relative="1" as="geometry">
            <mxPoint x="550" y="400" as="sourcePoint" />
            <mxPoint x="570" y="350" as="targetPoint" />
          </mxGeometry>
        </mxCell>
        <mxCell id="KTGz2EW0Z5FNE_z3Yaa0-19" value="&lt;b&gt;&lt;u&gt;Campaign ID&lt;/u&gt;&lt;/b&gt;" style="ellipse;whiteSpace=wrap;html=1;" parent="1" vertex="1">
          <mxGeometry x="700" y="210" width="120" height="80" as="geometry" />
        </mxCell>
        <mxCell id="KTGz2EW0Z5FNE_z3Yaa0-20" value="&lt;b&gt;Start Date&lt;/b&gt;" style="ellipse;whiteSpace=wrap;html=1;" parent="1" vertex="1">
          <mxGeometry x="710" y="300" width="120" height="80" as="geometry" />
        </mxCell>
        <mxCell id="KTGz2EW0Z5FNE_z3Yaa0-21" value="" style="endArrow=none;html=1;rounded=0;entryX=0;entryY=0.664;entryDx=0;entryDy=0;entryPerimeter=0;" parent="1" target="KTGz2EW0Z5FNE_z3Yaa0-20" edge="1">
          <mxGeometry width="50" height="50" relative="1" as="geometry">
            <mxPoint x="650" y="420" as="sourcePoint" />
            <mxPoint x="700" y="370" as="targetPoint" />
          </mxGeometry>
        </mxCell>
        <mxCell id="KTGz2EW0Z5FNE_z3Yaa0-22" value="&lt;b&gt;End Date&lt;/b&gt;" style="ellipse;whiteSpace=wrap;html=1;" parent="1" vertex="1">
          <mxGeometry x="710" y="390" width="120" height="80" as="geometry" />
        </mxCell>
        <mxCell id="KTGz2EW0Z5FNE_z3Yaa0-23" value="" style="endArrow=none;html=1;rounded=0;entryX=0;entryY=0.384;entryDx=0;entryDy=0;entryPerimeter=0;exitX=1;exitY=0.75;exitDx=0;exitDy=0;" parent="1" source="KTGz2EW0Z5FNE_z3Yaa0-15" target="KTGz2EW0Z5FNE_z3Yaa0-22" edge="1">
          <mxGeometry width="50" height="50" relative="1" as="geometry">
            <mxPoint x="620" y="500" as="sourcePoint" />
            <mxPoint x="670" y="450" as="targetPoint" />
          </mxGeometry>
        </mxCell>
        <mxCell id="KTGz2EW0Z5FNE_z3Yaa0-25" value="&lt;b&gt;Budget&lt;/b&gt;" style="ellipse;whiteSpace=wrap;html=1;" parent="1" vertex="1">
          <mxGeometry x="530" y="510" width="120" height="80" as="geometry" />
        </mxCell>
        <mxCell id="KTGz2EW0Z5FNE_z3Yaa0-26" value="" style="endArrow=none;html=1;rounded=0;exitX=0.5;exitY=1;exitDx=0;exitDy=0;" parent="1" source="KTGz2EW0Z5FNE_z3Yaa0-15" target="KTGz2EW0Z5FNE_z3Yaa0-25" edge="1">
          <mxGeometry width="50" height="50" relative="1" as="geometry">
            <mxPoint x="570" y="520" as="sourcePoint" />
            <mxPoint x="620" y="470" as="targetPoint" />
          </mxGeometry>
        </mxCell>
        <mxCell id="KTGz2EW0Z5FNE_z3Yaa0-27" value="&lt;b&gt;Duration&lt;/b&gt;" style="ellipse;whiteSpace=wrap;html=1;align=center;dashed=1;" parent="1" vertex="1">
          <mxGeometry x="860" y="360" width="100" height="70" as="geometry" />
        </mxCell>
        <mxCell id="KTGz2EW0Z5FNE_z3Yaa0-28" value="" style="endArrow=none;html=1;rounded=0;entryX=0.282;entryY=0.984;entryDx=0;entryDy=0;entryPerimeter=0;exitX=1;exitY=0.5;exitDx=0;exitDy=0;" parent="1" source="KTGz2EW0Z5FNE_z3Yaa0-22" target="KTGz2EW0Z5FNE_z3Yaa0-27" edge="1">
          <mxGeometry width="50" height="50" relative="1" as="geometry">
            <mxPoint x="830" y="455" as="sourcePoint" />
            <mxPoint x="880" y="405" as="targetPoint" />
          </mxGeometry>
        </mxCell>
        <mxCell id="KTGz2EW0Z5FNE_z3Yaa0-29" value="" style="endArrow=none;html=1;rounded=0;entryX=0.299;entryY=0.015;entryDx=0;entryDy=0;entryPerimeter=0;" parent="1" source="KTGz2EW0Z5FNE_z3Yaa0-20" target="KTGz2EW0Z5FNE_z3Yaa0-27" edge="1">
          <mxGeometry width="50" height="50" relative="1" as="geometry">
            <mxPoint x="850" y="310" as="sourcePoint" />
            <mxPoint x="908" y="284" as="targetPoint" />
          </mxGeometry>
        </mxCell>
        <mxCell id="KTGz2EW0Z5FNE_z3Yaa0-30" value="&lt;b&gt;Competes&lt;/b&gt;" style="rhombus;whiteSpace=wrap;html=1;" parent="1" vertex="1">
          <mxGeometry x="260" y="755" width="80" height="80" as="geometry" />
        </mxCell>
        <mxCell id="KTGz2EW0Z5FNE_z3Yaa0-31" value="" style="endArrow=none;html=1;rounded=0;entryX=0.5;entryY=1;entryDx=0;entryDy=0;exitX=0.5;exitY=0;exitDx=0;exitDy=0;" parent="1" source="KTGz2EW0Z5FNE_z3Yaa0-30" target="KTGz2EW0Z5FNE_z3Yaa0-1" edge="1">
          <mxGeometry width="50" height="50" relative="1" as="geometry">
            <mxPoint x="350" y="590" as="sourcePoint" />
            <mxPoint x="350" y="560" as="targetPoint" />
            <Array as="points" />
          </mxGeometry>
        </mxCell>
        <mxCell id="KTGz2EW0Z5FNE_z3Yaa0-34" value="&lt;b&gt;Constituency&lt;/b&gt;" style="rounded=0;whiteSpace=wrap;html=1;" parent="1" vertex="1">
          <mxGeometry x="280" y="1120" width="120" height="60" as="geometry" />
        </mxCell>
        <mxCell id="KTGz2EW0Z5FNE_z3Yaa0-35" value="&lt;b&gt;Donor&lt;/b&gt;" style="ellipse;whiteSpace=wrap;html=1;" parent="1" vertex="1">
          <mxGeometry y="1190" width="120" height="80" as="geometry" />
        </mxCell>
        <mxCell id="KTGz2EW0Z5FNE_z3Yaa0-36" value="" style="endArrow=none;html=1;rounded=0;entryX=0;entryY=0.5;entryDx=0;entryDy=0;exitX=0.566;exitY=-0.056;exitDx=0;exitDy=0;exitPerimeter=0;" parent="1" source="KTGz2EW0Z5FNE_z3Yaa0-35" target="KTGz2EW0Z5FNE_z3Yaa0-34" edge="1">
          <mxGeometry width="50" height="50" relative="1" as="geometry">
            <mxPoint x="120" y="660" as="sourcePoint" />
            <mxPoint x="170" y="610" as="targetPoint" />
          </mxGeometry>
        </mxCell>
        <mxCell id="KTGz2EW0Z5FNE_z3Yaa0-37" value="&lt;b&gt;Name&lt;/b&gt;" style="ellipse;whiteSpace=wrap;html=1;" parent="1" vertex="1">
          <mxGeometry x="170" y="1250" width="120" height="80" as="geometry" />
        </mxCell>
        <mxCell id="KTGz2EW0Z5FNE_z3Yaa0-38" value="" style="endArrow=none;html=1;rounded=0;entryX=0.414;entryY=0.993;entryDx=0;entryDy=0;entryPerimeter=0;exitX=0.604;exitY=-0.024;exitDx=0;exitDy=0;exitPerimeter=0;" parent="1" source="KTGz2EW0Z5FNE_z3Yaa0-37" target="KTGz2EW0Z5FNE_z3Yaa0-34" edge="1">
          <mxGeometry width="50" height="50" relative="1" as="geometry">
            <mxPoint x="215" y="710" as="sourcePoint" />
            <mxPoint x="265" y="660" as="targetPoint" />
          </mxGeometry>
        </mxCell>
        <mxCell id="KTGz2EW0Z5FNE_z3Yaa0-39" value="" style="endArrow=none;html=1;rounded=0;entryX=0.5;entryY=1;entryDx=0;entryDy=0;exitX=0.5;exitY=0;exitDx=0;exitDy=0;" parent="1" source="KTGz2EW0Z5FNE_z3Yaa0-40" target="KTGz2EW0Z5FNE_z3Yaa0-34" edge="1">
          <mxGeometry width="50" height="50" relative="1" as="geometry">
            <mxPoint x="360" y="730" as="sourcePoint" />
            <mxPoint x="440" y="560" as="targetPoint" />
            <Array as="points" />
          </mxGeometry>
        </mxCell>
        <mxCell id="KTGz2EW0Z5FNE_z3Yaa0-40" value="&lt;b&gt;Region&lt;/b&gt;" style="ellipse;whiteSpace=wrap;html=1;" parent="1" vertex="1">
          <mxGeometry x="280" y="1300" width="120" height="80" as="geometry" />
        </mxCell>
        <mxCell id="KTGz2EW0Z5FNE_z3Yaa0-41" value="&lt;b&gt;&lt;u&gt;Constituency ID&lt;/u&gt;&lt;/b&gt;" style="ellipse;whiteSpace=wrap;html=1;" parent="1" vertex="1">
          <mxGeometry x="560" y="1270" width="120" height="80" as="geometry" />
        </mxCell>
        <mxCell id="KTGz2EW0Z5FNE_z3Yaa0-42" value="" style="endArrow=none;html=1;rounded=0;exitX=0.75;exitY=1;exitDx=0;exitDy=0;entryX=0;entryY=0;entryDx=0;entryDy=0;" parent="1" source="KTGz2EW0Z5FNE_z3Yaa0-34" target="KTGz2EW0Z5FNE_z3Yaa0-41" edge="1">
          <mxGeometry width="50" height="50" relative="1" as="geometry">
            <mxPoint x="380" y="610" as="sourcePoint" />
            <mxPoint x="430" y="560" as="targetPoint" />
          </mxGeometry>
        </mxCell>
        <mxCell id="KTGz2EW0Z5FNE_z3Yaa0-43" value="&lt;b&gt;&lt;u&gt;Donor ID&lt;/u&gt;&lt;/b&gt;" style="ellipse;whiteSpace=wrap;html=1;" parent="1" vertex="1">
          <mxGeometry x="-350" y="760" width="120" height="80" as="geometry" />
        </mxCell>
        <mxCell id="KTGz2EW0Z5FNE_z3Yaa0-44" value="&lt;b&gt;Donor&lt;/b&gt;" style="rounded=0;whiteSpace=wrap;html=1;" parent="1" vertex="1">
          <mxGeometry x="-165" y="790" width="120" height="60" as="geometry" />
        </mxCell>
        <mxCell id="KTGz2EW0Z5FNE_z3Yaa0-45" value="" style="endArrow=none;html=1;rounded=0;entryX=0;entryY=0.5;entryDx=0;entryDy=0;exitX=1;exitY=0.5;exitDx=0;exitDy=0;" parent="1" source="KTGz2EW0Z5FNE_z3Yaa0-43" target="KTGz2EW0Z5FNE_z3Yaa0-44" edge="1">
          <mxGeometry width="50" height="50" relative="1" as="geometry">
            <mxPoint x="530" y="750" as="sourcePoint" />
            <mxPoint x="580" y="700" as="targetPoint" />
          </mxGeometry>
        </mxCell>
        <mxCell id="KTGz2EW0Z5FNE_z3Yaa0-46" value="&lt;b&gt;donates&lt;/b&gt;" style="rhombus;whiteSpace=wrap;html=1;rotation=-15;direction=south;" parent="1" vertex="1">
          <mxGeometry x="140" y="825" width="80" height="80" as="geometry" />
        </mxCell>
        <mxCell id="KTGz2EW0Z5FNE_z3Yaa0-47" value="" style="endArrow=none;html=1;rounded=0;exitX=-0.039;exitY=0.227;exitDx=0;exitDy=0;entryX=0.982;entryY=0.585;entryDx=0;entryDy=0;exitPerimeter=0;entryPerimeter=0;" parent="1" source="KTGz2EW0Z5FNE_z3Yaa0-34" target="KTGz2EW0Z5FNE_z3Yaa0-46" edge="1">
          <mxGeometry width="50" height="50" relative="1" as="geometry">
            <mxPoint x="380" y="610" as="sourcePoint" />
            <mxPoint x="430" y="560" as="targetPoint" />
          </mxGeometry>
        </mxCell>
        <mxCell id="KTGz2EW0Z5FNE_z3Yaa0-48" value="" style="endArrow=none;html=1;rounded=0;entryX=1;entryY=0.5;entryDx=0;entryDy=0;exitX=0;exitY=0.5;exitDx=0;exitDy=0;" parent="1" source="KTGz2EW0Z5FNE_z3Yaa0-46" target="KTGz2EW0Z5FNE_z3Yaa0-44" edge="1">
          <mxGeometry width="50" height="50" relative="1" as="geometry">
            <mxPoint x="490" y="640" as="sourcePoint" />
            <mxPoint x="580" y="640" as="targetPoint" />
            <Array as="points" />
          </mxGeometry>
        </mxCell>
        <mxCell id="KTGz2EW0Z5FNE_z3Yaa0-49" value="&lt;b&gt;Name&lt;/b&gt;" style="ellipse;whiteSpace=wrap;html=1;" parent="1" vertex="1">
          <mxGeometry x="-340" y="850" width="120" height="80" as="geometry" />
        </mxCell>
        <mxCell id="KTGz2EW0Z5FNE_z3Yaa0-50" value="" style="endArrow=none;html=1;rounded=0;entryX=0.626;entryY=0.981;entryDx=0;entryDy=0;entryPerimeter=0;" parent="1" source="KTGz2EW0Z5FNE_z3Yaa0-49" target="KTGz2EW0Z5FNE_z3Yaa0-44" edge="1">
          <mxGeometry width="50" height="50" relative="1" as="geometry">
            <mxPoint x="570" y="770" as="sourcePoint" />
            <mxPoint x="620" y="720" as="targetPoint" />
          </mxGeometry>
        </mxCell>
        <mxCell id="KTGz2EW0Z5FNE_z3Yaa0-52" value="&lt;b&gt;Phone number&lt;/b&gt;" style="ellipse;shape=doubleEllipse;margin=3;whiteSpace=wrap;html=1;align=center;" parent="1" vertex="1">
          <mxGeometry x="-210" y="930" width="100" height="70" as="geometry" />
        </mxCell>
        <mxCell id="KTGz2EW0Z5FNE_z3Yaa0-53" value="" style="endArrow=none;html=1;rounded=0;entryX=0.5;entryY=0;entryDx=0;entryDy=0;exitX=0.75;exitY=1;exitDx=0;exitDy=0;" parent="1" source="KTGz2EW0Z5FNE_z3Yaa0-44" target="KTGz2EW0Z5FNE_z3Yaa0-52" edge="1">
          <mxGeometry width="50" height="50" relative="1" as="geometry">
            <mxPoint x="650" y="670" as="sourcePoint" />
            <mxPoint x="700" y="620" as="targetPoint" />
            <Array as="points" />
          </mxGeometry>
        </mxCell>
        <mxCell id="KTGz2EW0Z5FNE_z3Yaa0-54" value="&lt;b&gt;Amount&lt;/b&gt;" style="ellipse;whiteSpace=wrap;html=1;" parent="1" vertex="1">
          <mxGeometry x="-140" y="1030" width="120" height="80" as="geometry" />
        </mxCell>
        <mxCell id="KTGz2EW0Z5FNE_z3Yaa0-55" value="" style="endArrow=none;html=1;rounded=0;exitX=0.953;exitY=1.067;exitDx=0;exitDy=0;exitPerimeter=0;entryX=0.023;entryY=0.236;entryDx=0;entryDy=0;entryPerimeter=0;" parent="1" source="KTGz2EW0Z5FNE_z3Yaa0-44" target="KTGz2EW0Z5FNE_z3Yaa0-54" edge="1">
          <mxGeometry width="50" height="50" relative="1" as="geometry">
            <mxPoint x="645" y="695" as="sourcePoint" />
            <mxPoint x="695" y="645" as="targetPoint" />
          </mxGeometry>
        </mxCell>
        <mxCell id="KTGz2EW0Z5FNE_z3Yaa0-56" value="&lt;b&gt;Date&lt;/b&gt;" style="ellipse;whiteSpace=wrap;html=1;" parent="1" vertex="1">
          <mxGeometry y="950" width="120" height="80" as="geometry" />
        </mxCell>
        <mxCell id="KTGz2EW0Z5FNE_z3Yaa0-57" value="" style="endArrow=none;html=1;rounded=0;entryX=0;entryY=0.5;entryDx=0;entryDy=0;exitX=1;exitY=1;exitDx=0;exitDy=0;" parent="1" source="KTGz2EW0Z5FNE_z3Yaa0-44" target="KTGz2EW0Z5FNE_z3Yaa0-56" edge="1">
          <mxGeometry width="50" height="50" relative="1" as="geometry">
            <mxPoint x="-30" y="870" as="sourcePoint" />
            <mxPoint x="710" y="630" as="targetPoint" />
          </mxGeometry>
        </mxCell>
        <mxCell id="KTGz2EW0Z5FNE_z3Yaa0-58" value="&lt;b&gt;Volunteers&lt;/b&gt;" style="rhombus;whiteSpace=wrap;html=1;" parent="1" vertex="1">
          <mxGeometry x="800" y="500" width="80" height="80" as="geometry" />
        </mxCell>
        <mxCell id="KTGz2EW0Z5FNE_z3Yaa0-59" value="" style="endArrow=none;html=1;rounded=0;entryX=0;entryY=0.5;entryDx=0;entryDy=0;" parent="1" source="KTGz2EW0Z5FNE_z3Yaa0-15" target="KTGz2EW0Z5FNE_z3Yaa0-58" edge="1">
          <mxGeometry width="50" height="50" relative="1" as="geometry">
            <mxPoint x="660" y="560" as="sourcePoint" />
            <mxPoint x="710" y="510" as="targetPoint" />
          </mxGeometry>
        </mxCell>
        <mxCell id="KTGz2EW0Z5FNE_z3Yaa0-60" value="" style="endArrow=none;html=1;rounded=0;exitX=1;exitY=0.5;exitDx=0;exitDy=0;entryX=0;entryY=0.5;entryDx=0;entryDy=0;" parent="1" source="KTGz2EW0Z5FNE_z3Yaa0-58" target="KTGz2EW0Z5FNE_z3Yaa0-61" edge="1">
          <mxGeometry width="50" height="50" relative="1" as="geometry">
            <mxPoint x="830" y="565" as="sourcePoint" />
            <mxPoint x="880" y="550" as="targetPoint" />
          </mxGeometry>
        </mxCell>
        <mxCell id="KTGz2EW0Z5FNE_z3Yaa0-61" value="&lt;b&gt;Volunteer&lt;/b&gt;" style="rounded=0;whiteSpace=wrap;html=1;" parent="1" vertex="1">
          <mxGeometry x="900" y="560" width="120" height="60" as="geometry" />
        </mxCell>
        <mxCell id="KTGz2EW0Z5FNE_z3Yaa0-62" value="" style="endArrow=none;html=1;rounded=0;entryX=0.25;entryY=1;entryDx=0;entryDy=0;exitX=0.054;exitY=0.268;exitDx=0;exitDy=0;exitPerimeter=0;" parent="1" source="KTGz2EW0Z5FNE_z3Yaa0-64" target="KTGz2EW0Z5FNE_z3Yaa0-61" edge="1">
          <mxGeometry width="50" height="50" relative="1" as="geometry">
            <mxPoint x="910" y="630" as="sourcePoint" />
            <mxPoint x="935" y="600" as="targetPoint" />
          </mxGeometry>
        </mxCell>
        <mxCell id="KTGz2EW0Z5FNE_z3Yaa0-64" value="&lt;b&gt;Name&lt;/b&gt;" style="ellipse;whiteSpace=wrap;html=1;" parent="1" vertex="1">
          <mxGeometry x="1330" y="680" width="120" height="80" as="geometry" />
        </mxCell>
        <mxCell id="KTGz2EW0Z5FNE_z3Yaa0-67" value="" style="endArrow=none;html=1;rounded=0;exitX=1;exitY=0.5;exitDx=0;exitDy=0;entryX=0.5;entryY=0;entryDx=0;entryDy=0;" parent="1" source="KTGz2EW0Z5FNE_z3Yaa0-19" target="KTGz2EW0Z5FNE_z3Yaa0-68" edge="1">
          <mxGeometry width="50" height="50" relative="1" as="geometry">
            <mxPoint x="860" y="260" as="sourcePoint" />
            <mxPoint x="1010" y="370" as="targetPoint" />
          </mxGeometry>
        </mxCell>
        <mxCell id="KTGz2EW0Z5FNE_z3Yaa0-68" value="&lt;b&gt;Assigned Camapign ID&lt;/b&gt;" style="ellipse;whiteSpace=wrap;html=1;" parent="1" vertex="1">
          <mxGeometry x="1040" y="480" width="120" height="80" as="geometry" />
        </mxCell>
        <mxCell id="KTGz2EW0Z5FNE_z3Yaa0-69" value="" style="endArrow=none;html=1;rounded=0;entryX=0.5;entryY=1;entryDx=0;entryDy=0;exitX=1.01;exitY=0.399;exitDx=0;exitDy=0;exitPerimeter=0;" parent="1" source="KTGz2EW0Z5FNE_z3Yaa0-61" target="KTGz2EW0Z5FNE_z3Yaa0-68" edge="1">
          <mxGeometry width="50" height="50" relative="1" as="geometry">
            <mxPoint x="930" y="530" as="sourcePoint" />
            <mxPoint x="980" y="480" as="targetPoint" />
          </mxGeometry>
        </mxCell>
        <mxCell id="KTGz2EW0Z5FNE_z3Yaa0-70" value="&lt;b&gt;Contact number&lt;/b&gt;" style="ellipse;shape=doubleEllipse;margin=3;whiteSpace=wrap;html=1;align=center;" parent="1" vertex="1">
          <mxGeometry x="1260" y="615" width="100" height="70" as="geometry" />
        </mxCell>
        <mxCell id="KTGz2EW0Z5FNE_z3Yaa0-71" value="" style="endArrow=none;html=1;rounded=0;exitX=1;exitY=1;exitDx=0;exitDy=0;entryX=-0.027;entryY=0.401;entryDx=0;entryDy=0;entryPerimeter=0;" parent="1" source="KTGz2EW0Z5FNE_z3Yaa0-61" target="KTGz2EW0Z5FNE_z3Yaa0-70" edge="1">
          <mxGeometry width="50" height="50" relative="1" as="geometry">
            <mxPoint x="1005" y="550" as="sourcePoint" />
            <mxPoint x="1055" y="500" as="targetPoint" />
          </mxGeometry>
        </mxCell>
        <mxCell id="KTGz2EW0Z5FNE_z3Yaa0-73" value="&lt;b&gt;Fundraiser&lt;/b&gt;" style="rounded=0;whiteSpace=wrap;html=1;" parent="1" vertex="1">
          <mxGeometry x="660" y="810" width="120" height="60" as="geometry" />
        </mxCell>
        <mxCell id="KTGz2EW0Z5FNE_z3Yaa0-74" value="&lt;b&gt;Funds&lt;/b&gt;" style="rhombus;whiteSpace=wrap;html=1;" parent="1" vertex="1">
          <mxGeometry x="660" y="610" width="80" height="80" as="geometry" />
        </mxCell>
        <mxCell id="KTGz2EW0Z5FNE_z3Yaa0-75" value="" style="endArrow=none;html=1;rounded=0;exitX=0.553;exitY=0.94;exitDx=0;exitDy=0;exitPerimeter=0;entryX=0.5;entryY=0;entryDx=0;entryDy=0;" parent="1" source="KTGz2EW0Z5FNE_z3Yaa0-74" target="KTGz2EW0Z5FNE_z3Yaa0-73" edge="1">
          <mxGeometry width="50" height="50" relative="1" as="geometry">
            <mxPoint x="950" y="750" as="sourcePoint" />
            <mxPoint x="1000" y="700" as="targetPoint" />
          </mxGeometry>
        </mxCell>
        <mxCell id="KTGz2EW0Z5FNE_z3Yaa0-77" value="&lt;b&gt;Name&lt;/b&gt;" style="ellipse;whiteSpace=wrap;html=1;" parent="1" vertex="1">
          <mxGeometry x="1030" y="850" width="120" height="80" as="geometry" />
        </mxCell>
        <mxCell id="KTGz2EW0Z5FNE_z3Yaa0-78" value="" style="endArrow=none;html=1;rounded=0;entryX=0;entryY=0.5;entryDx=0;entryDy=0;exitX=1;exitY=0.5;exitDx=0;exitDy=0;" parent="1" source="KTGz2EW0Z5FNE_z3Yaa0-73" target="KTGz2EW0Z5FNE_z3Yaa0-77" edge="1">
          <mxGeometry width="50" height="50" relative="1" as="geometry">
            <mxPoint x="810" y="610" as="sourcePoint" />
            <mxPoint x="860" y="560" as="targetPoint" />
          </mxGeometry>
        </mxCell>
        <mxCell id="KTGz2EW0Z5FNE_z3Yaa0-79" value="&lt;b&gt;Contact number&lt;/b&gt;" style="ellipse;shape=doubleEllipse;margin=3;whiteSpace=wrap;html=1;align=center;" parent="1" vertex="1">
          <mxGeometry x="620" y="950" width="100" height="70" as="geometry" />
        </mxCell>
        <mxCell id="KTGz2EW0Z5FNE_z3Yaa0-80" value="" style="endArrow=none;html=1;rounded=0;entryX=0.5;entryY=1;entryDx=0;entryDy=0;exitX=0.5;exitY=0;exitDx=0;exitDy=0;" parent="1" source="KTGz2EW0Z5FNE_z3Yaa0-79" target="KTGz2EW0Z5FNE_z3Yaa0-73" edge="1">
          <mxGeometry width="50" height="50" relative="1" as="geometry">
            <mxPoint x="1040" y="810" as="sourcePoint" />
            <mxPoint x="860" y="810" as="targetPoint" />
          </mxGeometry>
        </mxCell>
        <mxCell id="KTGz2EW0Z5FNE_z3Yaa0-81" value="&lt;b&gt;&lt;u&gt;Campaign ID&lt;/u&gt;&lt;/b&gt;" style="ellipse;whiteSpace=wrap;html=1;" parent="1" vertex="1">
          <mxGeometry x="1510" y="730" width="120" height="80" as="geometry" />
        </mxCell>
        <mxCell id="KTGz2EW0Z5FNE_z3Yaa0-82" value="" style="endArrow=none;html=1;rounded=0;entryX=0.957;entryY=0.195;entryDx=0;entryDy=0;entryPerimeter=0;exitX=0.417;exitY=0;exitDx=0;exitDy=0;exitPerimeter=0;" parent="1" source="KTGz2EW0Z5FNE_z3Yaa0-81" target="KTGz2EW0Z5FNE_z3Yaa0-19" edge="1">
          <mxGeometry width="50" height="50" relative="1" as="geometry">
            <mxPoint x="1240" y="390" as="sourcePoint" />
            <mxPoint x="860" y="440" as="targetPoint" />
            <Array as="points">
              <mxPoint x="1230" y="360" />
            </Array>
          </mxGeometry>
        </mxCell>
        <mxCell id="KTGz2EW0Z5FNE_z3Yaa0-83" value="" style="endArrow=none;html=1;rounded=0;entryX=0.096;entryY=0.872;entryDx=0;entryDy=0;entryPerimeter=0;exitX=1;exitY=0;exitDx=0;exitDy=0;" parent="1" source="KTGz2EW0Z5FNE_z3Yaa0-73" target="KTGz2EW0Z5FNE_z3Yaa0-81" edge="1">
          <mxGeometry width="50" height="50" relative="1" as="geometry">
            <mxPoint x="810" y="610" as="sourcePoint" />
            <mxPoint x="860" y="560" as="targetPoint" />
          </mxGeometry>
        </mxCell>
        <mxCell id="KTGz2EW0Z5FNE_z3Yaa0-84" value="&lt;b&gt;Date&lt;/b&gt;" style="ellipse;whiteSpace=wrap;html=1;" parent="1" vertex="1">
          <mxGeometry x="930" y="930" width="120" height="80" as="geometry" />
        </mxCell>
        <mxCell id="KTGz2EW0Z5FNE_z3Yaa0-85" value="&lt;b&gt;Fund Raised&lt;/b&gt;" style="ellipse;whiteSpace=wrap;html=1;" parent="1" vertex="1">
          <mxGeometry x="780" y="950" width="120" height="80" as="geometry" />
        </mxCell>
        <mxCell id="KTGz2EW0Z5FNE_z3Yaa0-87" value="" style="endArrow=none;html=1;rounded=0;entryX=0.86;entryY=1.038;entryDx=0;entryDy=0;entryPerimeter=0;exitX=0.249;exitY=0.07;exitDx=0;exitDy=0;exitPerimeter=0;" parent="1" source="KTGz2EW0Z5FNE_z3Yaa0-85" target="KTGz2EW0Z5FNE_z3Yaa0-73" edge="1">
          <mxGeometry width="50" height="50" relative="1" as="geometry">
            <mxPoint x="820" y="990" as="sourcePoint" />
            <mxPoint x="870" y="940" as="targetPoint" />
          </mxGeometry>
        </mxCell>
        <mxCell id="KTGz2EW0Z5FNE_z3Yaa0-88" value="" style="endArrow=none;html=1;rounded=0;entryX=1;entryY=1;entryDx=0;entryDy=0;" parent="1" source="KTGz2EW0Z5FNE_z3Yaa0-84" target="KTGz2EW0Z5FNE_z3Yaa0-73" edge="1">
          <mxGeometry width="50" height="50" relative="1" as="geometry">
            <mxPoint x="820" y="990" as="sourcePoint" />
            <mxPoint x="870" y="940" as="targetPoint" />
          </mxGeometry>
        </mxCell>
        <mxCell id="KTGz2EW0Z5FNE_z3Yaa0-89" value="&lt;b&gt;participates&lt;/b&gt;" style="rhombus;whiteSpace=wrap;html=1;" parent="1" vertex="1">
          <mxGeometry x="425" y="770" width="80" height="80" as="geometry" />
        </mxCell>
        <mxCell id="KTGz2EW0Z5FNE_z3Yaa0-91" value="" style="endArrow=none;html=1;rounded=0;entryX=1;entryY=1;entryDx=0;entryDy=0;exitX=0.5;exitY=0;exitDx=0;exitDy=0;" parent="1" source="KTGz2EW0Z5FNE_z3Yaa0-89" target="KTGz2EW0Z5FNE_z3Yaa0-1" edge="1">
          <mxGeometry width="50" height="50" relative="1" as="geometry">
            <mxPoint x="425" y="535" as="sourcePoint" />
            <mxPoint x="375" y="420" as="targetPoint" />
          </mxGeometry>
        </mxCell>
        <mxCell id="KTGz2EW0Z5FNE_z3Yaa0-92" value="" style="endArrow=none;html=1;rounded=0;entryX=0.5;entryY=1;entryDx=0;entryDy=0;exitX=0.377;exitY=-0.077;exitDx=0;exitDy=0;exitPerimeter=0;" parent="1" source="KTGz2EW0Z5FNE_z3Yaa0-93" target="KTGz2EW0Z5FNE_z3Yaa0-89" edge="1">
          <mxGeometry width="50" height="50" relative="1" as="geometry">
            <mxPoint x="525" y="680" as="sourcePoint" />
            <mxPoint x="575" y="630" as="targetPoint" />
          </mxGeometry>
        </mxCell>
        <mxCell id="KTGz2EW0Z5FNE_z3Yaa0-93" value="&lt;b&gt;Event&lt;/b&gt;" style="rounded=0;whiteSpace=wrap;html=1;" parent="1" vertex="1">
          <mxGeometry x="580" y="1070" width="120" height="60" as="geometry" />
        </mxCell>
        <mxCell id="KTGz2EW0Z5FNE_z3Yaa0-94" value="&lt;b&gt;&lt;u&gt;Event ID&lt;/u&gt;&lt;/b&gt;" style="ellipse;whiteSpace=wrap;html=1;" parent="1" vertex="1">
          <mxGeometry x="870" y="1080" width="120" height="80" as="geometry" />
        </mxCell>
        <mxCell id="KTGz2EW0Z5FNE_z3Yaa0-95" value="&lt;b&gt;&lt;u&gt;Volunteer ID&lt;/u&gt;&lt;/b&gt;" style="ellipse;whiteSpace=wrap;html=1;" parent="1" vertex="1">
          <mxGeometry x="1160" y="540" width="120" height="80" as="geometry" />
        </mxCell>
        <mxCell id="KTGz2EW0Z5FNE_z3Yaa0-96" value="" style="endArrow=none;html=1;rounded=0;entryX=-0.008;entryY=0.622;entryDx=0;entryDy=0;entryPerimeter=0;exitX=1;exitY=0.75;exitDx=0;exitDy=0;" parent="1" source="KTGz2EW0Z5FNE_z3Yaa0-61" target="KTGz2EW0Z5FNE_z3Yaa0-95" edge="1">
          <mxGeometry width="50" height="50" relative="1" as="geometry">
            <mxPoint x="1010" y="535" as="sourcePoint" />
            <mxPoint x="1060" y="485" as="targetPoint" />
          </mxGeometry>
        </mxCell>
        <mxCell id="KTGz2EW0Z5FNE_z3Yaa0-98" value="" style="endArrow=none;html=1;rounded=0;exitX=1;exitY=0.5;exitDx=0;exitDy=0;entryX=0;entryY=0.5;entryDx=0;entryDy=0;" parent="1" source="KTGz2EW0Z5FNE_z3Yaa0-93" target="KTGz2EW0Z5FNE_z3Yaa0-94" edge="1">
          <mxGeometry width="50" height="50" relative="1" as="geometry">
            <mxPoint x="820" y="730" as="sourcePoint" />
            <mxPoint x="870" y="680" as="targetPoint" />
          </mxGeometry>
        </mxCell>
        <mxCell id="KTGz2EW0Z5FNE_z3Yaa0-99" value="&lt;b&gt;in&lt;/b&gt;" style="rhombus;whiteSpace=wrap;html=1;" parent="1" vertex="1">
          <mxGeometry x="450" y="1100" width="80" height="80" as="geometry" />
        </mxCell>
        <mxCell id="KTGz2EW0Z5FNE_z3Yaa0-100" value="" style="endArrow=none;html=1;rounded=0;exitX=1;exitY=0.5;exitDx=0;exitDy=0;entryX=0;entryY=0.5;entryDx=0;entryDy=0;" parent="1" source="KTGz2EW0Z5FNE_z3Yaa0-34" target="KTGz2EW0Z5FNE_z3Yaa0-99" edge="1">
          <mxGeometry width="50" height="50" relative="1" as="geometry">
            <mxPoint x="550" y="730" as="sourcePoint" />
            <mxPoint x="600" y="680" as="targetPoint" />
          </mxGeometry>
        </mxCell>
        <mxCell id="KTGz2EW0Z5FNE_z3Yaa0-101" value="" style="endArrow=none;html=1;rounded=0;entryX=-0.006;entryY=0.909;entryDx=0;entryDy=0;entryPerimeter=0;" parent="1" source="KTGz2EW0Z5FNE_z3Yaa0-99" target="KTGz2EW0Z5FNE_z3Yaa0-93" edge="1">
          <mxGeometry width="50" height="50" relative="1" as="geometry">
            <mxPoint x="550" y="730" as="sourcePoint" />
            <mxPoint x="600" y="680" as="targetPoint" />
          </mxGeometry>
        </mxCell>
        <mxCell id="KTGz2EW0Z5FNE_z3Yaa0-102" value="&lt;b&gt;Name&lt;/b&gt;" style="ellipse;whiteSpace=wrap;html=1;" parent="1" vertex="1">
          <mxGeometry x="730" y="1250" width="120" height="80" as="geometry" />
        </mxCell>
        <mxCell id="KTGz2EW0Z5FNE_z3Yaa0-103" value="" style="endArrow=none;html=1;rounded=0;entryX=0.5;entryY=1;entryDx=0;entryDy=0;exitX=0.5;exitY=0;exitDx=0;exitDy=0;" parent="1" source="KTGz2EW0Z5FNE_z3Yaa0-102" target="KTGz2EW0Z5FNE_z3Yaa0-93" edge="1">
          <mxGeometry width="50" height="50" relative="1" as="geometry">
            <mxPoint x="510" y="770" as="sourcePoint" />
            <mxPoint x="560" y="720" as="targetPoint" />
          </mxGeometry>
        </mxCell>
        <mxCell id="KTGz2EW0Z5FNE_z3Yaa0-104" value="&lt;b&gt;Location&lt;/b&gt;" style="ellipse;whiteSpace=wrap;html=1;" parent="1" vertex="1">
          <mxGeometry x="920" y="1240" width="120" height="80" as="geometry" />
        </mxCell>
        <mxCell id="KTGz2EW0Z5FNE_z3Yaa0-105" value="" style="endArrow=none;html=1;rounded=0;exitX=1;exitY=0.5;exitDx=0;exitDy=0;entryX=0.133;entryY=1.03;entryDx=0;entryDy=0;entryPerimeter=0;" parent="1" source="KTGz2EW0Z5FNE_z3Yaa0-41" target="KTGz2EW0Z5FNE_z3Yaa0-93" edge="1">
          <mxGeometry width="50" height="50" relative="1" as="geometry">
            <mxPoint x="550" y="840" as="sourcePoint" />
            <mxPoint x="600" y="790" as="targetPoint" />
          </mxGeometry>
        </mxCell>
        <mxCell id="KTGz2EW0Z5FNE_z3Yaa0-106" value="" style="endArrow=none;html=1;rounded=0;entryX=0.75;entryY=1;entryDx=0;entryDy=0;exitX=0;exitY=0;exitDx=0;exitDy=0;" parent="1" source="KTGz2EW0Z5FNE_z3Yaa0-104" target="KTGz2EW0Z5FNE_z3Yaa0-93" edge="1">
          <mxGeometry width="50" height="50" relative="1" as="geometry">
            <mxPoint x="550" y="840" as="sourcePoint" />
            <mxPoint x="600" y="790" as="targetPoint" />
          </mxGeometry>
        </mxCell>
        <mxCell id="KTGz2EW0Z5FNE_z3Yaa0-107" value="&lt;b&gt;Political Party&lt;/b&gt;" style="rounded=0;whiteSpace=wrap;html=1;" parent="1" vertex="1">
          <mxGeometry x="290" y="-280" width="120" height="60" as="geometry" />
        </mxCell>
        <mxCell id="KTGz2EW0Z5FNE_z3Yaa0-108" value="&lt;b&gt;member of&amp;nbsp;&lt;/b&gt;" style="rhombus;whiteSpace=wrap;html=1;" parent="1" vertex="1">
          <mxGeometry x="480" y="-140" width="80" height="80" as="geometry" />
        </mxCell>
        <mxCell id="KTGz2EW0Z5FNE_z3Yaa0-110" value="" style="endArrow=none;html=1;rounded=0;entryX=0.5;entryY=1;entryDx=0;entryDy=0;exitX=0.583;exitY=0;exitDx=0;exitDy=0;exitPerimeter=0;" parent="1" source="KTGz2EW0Z5FNE_z3Yaa0-1" target="KTGz2EW0Z5FNE_z3Yaa0-108" edge="1">
          <mxGeometry width="50" height="50" relative="1" as="geometry">
            <mxPoint x="540" y="310" as="sourcePoint" />
            <mxPoint x="590" y="260" as="targetPoint" />
          </mxGeometry>
        </mxCell>
        <mxCell id="KTGz2EW0Z5FNE_z3Yaa0-112" value="&lt;b&gt;Contact Number&lt;/b&gt;" style="ellipse;shape=doubleEllipse;margin=3;whiteSpace=wrap;html=1;align=center;" parent="1" vertex="1">
          <mxGeometry x="540" y="-40" width="100" height="40" as="geometry" />
        </mxCell>
        <mxCell id="KTGz2EW0Z5FNE_z3Yaa0-114" value="&lt;b&gt;Name&lt;/b&gt;" style="ellipse;whiteSpace=wrap;html=1;" parent="1" vertex="1">
          <mxGeometry x="-10" y="-400" width="120" height="80" as="geometry" />
        </mxCell>
        <mxCell id="KTGz2EW0Z5FNE_z3Yaa0-115" value="&lt;b&gt;Party ID&lt;/b&gt;" style="ellipse;whiteSpace=wrap;html=1;" parent="1" vertex="1">
          <mxGeometry x="180" y="-430" width="120" height="80" as="geometry" />
        </mxCell>
        <mxCell id="KTGz2EW0Z5FNE_z3Yaa0-116" value="&lt;b&gt;Ideology&lt;/b&gt;" style="ellipse;whiteSpace=wrap;html=1;" parent="1" vertex="1">
          <mxGeometry x="330" y="-430" width="120" height="80" as="geometry" />
        </mxCell>
        <mxCell id="KTGz2EW0Z5FNE_z3Yaa0-117" value="" style="endArrow=none;html=1;rounded=0;entryX=0;entryY=1;entryDx=0;entryDy=0;exitX=0.575;exitY=1.033;exitDx=0;exitDy=0;exitPerimeter=0;" parent="1" source="KTGz2EW0Z5FNE_z3Yaa0-114" target="KTGz2EW0Z5FNE_z3Yaa0-107" edge="1">
          <mxGeometry width="50" height="50" relative="1" as="geometry">
            <mxPoint x="540" y="200" as="sourcePoint" />
            <mxPoint x="590" y="150" as="targetPoint" />
          </mxGeometry>
        </mxCell>
        <mxCell id="KTGz2EW0Z5FNE_z3Yaa0-118" value="" style="endArrow=none;html=1;rounded=0;entryX=0.081;entryY=-0.037;entryDx=0;entryDy=0;exitX=0.603;exitY=1.041;exitDx=0;exitDy=0;exitPerimeter=0;entryPerimeter=0;" parent="1" source="KTGz2EW0Z5FNE_z3Yaa0-115" target="KTGz2EW0Z5FNE_z3Yaa0-107" edge="1">
          <mxGeometry width="50" height="50" relative="1" as="geometry">
            <mxPoint x="540" y="200" as="sourcePoint" />
            <mxPoint x="590" y="150" as="targetPoint" />
          </mxGeometry>
        </mxCell>
        <mxCell id="KTGz2EW0Z5FNE_z3Yaa0-119" value="" style="endArrow=none;html=1;rounded=0;entryX=0.828;entryY=-0.062;entryDx=0;entryDy=0;exitX=0.248;exitY=0.958;exitDx=0;exitDy=0;exitPerimeter=0;entryPerimeter=0;" parent="1" source="KTGz2EW0Z5FNE_z3Yaa0-116" target="KTGz2EW0Z5FNE_z3Yaa0-107" edge="1">
          <mxGeometry width="50" height="50" relative="1" as="geometry">
            <mxPoint x="540" y="200" as="sourcePoint" />
            <mxPoint x="590" y="150" as="targetPoint" />
          </mxGeometry>
        </mxCell>
        <mxCell id="KTGz2EW0Z5FNE_z3Yaa0-120" value="" style="endArrow=classic;html=1;rounded=0;entryX=1;entryY=0.5;entryDx=0;entryDy=0;exitX=0;exitY=0.5;exitDx=0;exitDy=0;" parent="1" source="KTGz2EW0Z5FNE_z3Yaa0-2" target="KTGz2EW0Z5FNE_z3Yaa0-1" edge="1">
          <mxGeometry width="50" height="50" relative="1" as="geometry">
            <mxPoint x="390" y="430" as="sourcePoint" />
            <mxPoint x="440" y="509.71" as="targetPoint" />
          </mxGeometry>
        </mxCell>
        <mxCell id="KTGz2EW0Z5FNE_z3Yaa0-125" value="" style="endArrow=classic;html=1;rounded=0;entryX=0.5;entryY=0;entryDx=0;entryDy=0;exitX=0.5;exitY=1;exitDx=0;exitDy=0;" parent="1" source="KTGz2EW0Z5FNE_z3Yaa0-30" target="KTGz2EW0Z5FNE_z3Yaa0-34" edge="1">
          <mxGeometry width="50" height="50" relative="1" as="geometry">
            <mxPoint x="300" y="480" as="sourcePoint" />
            <mxPoint x="300" y="510" as="targetPoint" />
          </mxGeometry>
        </mxCell>
        <mxCell id="KTGz2EW0Z5FNE_z3Yaa0-126" value="" style="endArrow=classic;html=1;rounded=0;exitX=0.5;exitY=0;exitDx=0;exitDy=0;entryX=0.378;entryY=1.049;entryDx=0;entryDy=0;entryPerimeter=0;" parent="1" source="KTGz2EW0Z5FNE_z3Yaa0-108" target="KTGz2EW0Z5FNE_z3Yaa0-107" edge="1">
          <mxGeometry width="50" height="50" relative="1" as="geometry">
            <mxPoint x="300" y="70" as="sourcePoint" />
            <mxPoint x="340" y="-130" as="targetPoint" />
            <Array as="points">
              <mxPoint x="335" y="-140" />
            </Array>
          </mxGeometry>
        </mxCell>
        <mxCell id="KTGz2EW0Z5FNE_z3Yaa0-129" value="" style="endArrow=none;html=1;rounded=0;exitX=1;exitY=0.5;exitDx=0;exitDy=0;entryX=0.25;entryY=0;entryDx=0;entryDy=0;" parent="1" source="KTGz2EW0Z5FNE_z3Yaa0-2" target="KTGz2EW0Z5FNE_z3Yaa0-15" edge="1">
          <mxGeometry width="50" height="50" relative="1" as="geometry">
            <mxPoint x="470" y="510" as="sourcePoint" />
            <mxPoint x="520" y="510" as="targetPoint" />
            <Array as="points" />
          </mxGeometry>
        </mxCell>
        <mxCell id="KTGz2EW0Z5FNE_z3Yaa0-130" value="" style="endArrow=classic;html=1;rounded=0;exitX=0.5;exitY=0;exitDx=0;exitDy=0;entryX=0.837;entryY=0.998;entryDx=0;entryDy=0;entryPerimeter=0;" parent="1" source="KTGz2EW0Z5FNE_z3Yaa0-74" target="KTGz2EW0Z5FNE_z3Yaa0-15" edge="1">
          <mxGeometry width="50" height="50" relative="1" as="geometry">
            <mxPoint x="780" y="80" as="sourcePoint" />
            <mxPoint x="880" y="180" as="targetPoint" />
          </mxGeometry>
        </mxCell>
        <mxCell id="cuiI2c-pOz_JId5ZMcu8-1" value="&lt;b&gt;First Name&amp;nbsp;&lt;/b&gt;" style="ellipse;whiteSpace=wrap;html=1;" parent="1" vertex="1">
          <mxGeometry x="80" y="-100" width="120" height="80" as="geometry" />
        </mxCell>
        <mxCell id="cuiI2c-pOz_JId5ZMcu8-2" value="&lt;b&gt;Last Name&amp;nbsp;&lt;/b&gt;" style="ellipse;whiteSpace=wrap;html=1;" parent="1" vertex="1">
          <mxGeometry x="250" y="-70" width="120" height="80" as="geometry" />
        </mxCell>
        <mxCell id="cuiI2c-pOz_JId5ZMcu8-3" value="" style="endArrow=none;html=1;rounded=0;entryX=0.568;entryY=0.985;entryDx=0;entryDy=0;entryPerimeter=0;" parent="1" source="KTGz2EW0Z5FNE_z3Yaa0-5" target="cuiI2c-pOz_JId5ZMcu8-2" edge="1">
          <mxGeometry width="50" height="50" relative="1" as="geometry">
            <mxPoint x="400" y="260" as="sourcePoint" />
            <mxPoint x="450" y="210" as="targetPoint" />
          </mxGeometry>
        </mxCell>
        <mxCell id="cuiI2c-pOz_JId5ZMcu8-4" value="" style="endArrow=none;html=1;rounded=0;entryX=0.57;entryY=1.015;entryDx=0;entryDy=0;entryPerimeter=0;exitX=0;exitY=0;exitDx=0;exitDy=0;" parent="1" source="KTGz2EW0Z5FNE_z3Yaa0-5" target="cuiI2c-pOz_JId5ZMcu8-1" edge="1">
          <mxGeometry width="50" height="50" relative="1" as="geometry">
            <mxPoint x="400" y="260" as="sourcePoint" />
            <mxPoint x="450" y="210" as="targetPoint" />
          </mxGeometry>
        </mxCell>
        <mxCell id="4VgvDbEDUMYowoK3cAxi-6" value="" style="triangle;whiteSpace=wrap;html=1;rotation=-90;" parent="1" vertex="1">
          <mxGeometry x="150" y="480" width="60" height="80" as="geometry" />
        </mxCell>
        <mxCell id="4VgvDbEDUMYowoK3cAxi-7" value="&lt;b&gt;ISA&lt;/b&gt;" style="text;html=1;align=center;verticalAlign=middle;whiteSpace=wrap;rounded=0;" parent="1" vertex="1">
          <mxGeometry x="150" y="520" width="60" height="30" as="geometry" />
        </mxCell>
        <mxCell id="4VgvDbEDUMYowoK3cAxi-8" value="" style="endArrow=none;html=1;rounded=0;entryX=0;entryY=0;entryDx=0;entryDy=0;entryPerimeter=0;exitX=0.5;exitY=0;exitDx=0;exitDy=0;" parent="1" source="KTGz2EW0Z5FNE_z3Yaa0-44" target="4VgvDbEDUMYowoK3cAxi-6" edge="1">
          <mxGeometry width="50" height="50" relative="1" as="geometry">
            <mxPoint x="-80" y="720" as="sourcePoint" />
            <mxPoint x="-20" y="670" as="targetPoint" />
            <Array as="points" />
          </mxGeometry>
        </mxCell>
        <mxCell id="4VgvDbEDUMYowoK3cAxi-9" value="" style="endArrow=none;html=1;rounded=0;entryX=0.056;entryY=0.979;entryDx=0;entryDy=0;entryPerimeter=0;exitX=0.004;exitY=-0.081;exitDx=0;exitDy=0;exitPerimeter=0;" parent="1" source="KTGz2EW0Z5FNE_z3Yaa0-73" target="4VgvDbEDUMYowoK3cAxi-6" edge="1">
          <mxGeometry width="50" height="50" relative="1" as="geometry">
            <mxPoint x="465" y="740" as="sourcePoint" />
            <mxPoint x="710" y="500" as="targetPoint" />
            <Array as="points" />
          </mxGeometry>
        </mxCell>
        <mxCell id="4VgvDbEDUMYowoK3cAxi-10" value="" style="endArrow=none;html=1;rounded=0;exitX=1;exitY=0.5;exitDx=0;exitDy=0;entryX=0.344;entryY=0.994;entryDx=0;entryDy=0;entryPerimeter=0;" parent="1" source="4VgvDbEDUMYowoK3cAxi-6" target="KTGz2EW0Z5FNE_z3Yaa0-1" edge="1">
          <mxGeometry width="50" height="50" relative="1" as="geometry">
            <mxPoint x="170" y="440" as="sourcePoint" />
            <mxPoint x="220" y="390" as="targetPoint" />
          </mxGeometry>
        </mxCell>
        <mxCell id="4VgvDbEDUMYowoK3cAxi-12" value="&lt;b&gt;manages&amp;nbsp;&lt;/b&gt;" style="shape=rhombus;perimeter=rhombusPerimeter;whiteSpace=wrap;html=1;align=center;" parent="1" vertex="1">
          <mxGeometry x="780" y="630" width="100" height="90" as="geometry" />
        </mxCell>
        <mxCell id="4VgvDbEDUMYowoK3cAxi-13" value="" style="endArrow=none;html=1;rounded=0;entryX=0.5;entryY=1;entryDx=0;entryDy=0;exitX=0.75;exitY=0;exitDx=0;exitDy=0;" parent="1" source="KTGz2EW0Z5FNE_z3Yaa0-73" target="4VgvDbEDUMYowoK3cAxi-12" edge="1">
          <mxGeometry width="50" height="50" relative="1" as="geometry">
            <mxPoint x="777" y="770" as="sourcePoint" />
            <mxPoint x="930" y="850" as="targetPoint" />
            <Array as="points">
              <mxPoint x="830" y="760" />
            </Array>
          </mxGeometry>
        </mxCell>
        <mxCell id="4VgvDbEDUMYowoK3cAxi-14" value="" style="endArrow=none;html=1;rounded=0;entryX=0.5;entryY=1;entryDx=0;entryDy=0;exitX=0.5;exitY=0;exitDx=0;exitDy=0;" parent="1" source="4VgvDbEDUMYowoK3cAxi-12" target="KTGz2EW0Z5FNE_z3Yaa0-58" edge="1">
          <mxGeometry width="50" height="50" relative="1" as="geometry">
            <mxPoint x="970" y="640" as="sourcePoint" />
            <mxPoint x="1123" y="720" as="targetPoint" />
          </mxGeometry>
        </mxCell>
        <mxCell id="4VgvDbEDUMYowoK3cAxi-16" value="" style="endArrow=none;html=1;rounded=0;" parent="1" edge="1">
          <mxGeometry width="50" height="50" relative="1" as="geometry">
            <mxPoint x="800" y="470" as="sourcePoint" />
            <mxPoint x="1250" y="470" as="targetPoint" />
          </mxGeometry>
        </mxCell>
        <mxCell id="4VgvDbEDUMYowoK3cAxi-20" value="" style="endArrow=none;html=1;rounded=0;" parent="1" edge="1">
          <mxGeometry width="50" height="50" relative="1" as="geometry">
            <mxPoint x="800" y="610" as="sourcePoint" />
            <mxPoint x="800" y="470" as="targetPoint" />
          </mxGeometry>
        </mxCell>
        <mxCell id="4VgvDbEDUMYowoK3cAxi-21" value="" style="endArrow=none;html=1;rounded=0;" parent="1" edge="1">
          <mxGeometry width="50" height="50" relative="1" as="geometry">
            <mxPoint x="800" y="610" as="sourcePoint" />
            <mxPoint x="1430" y="780" as="targetPoint" />
          </mxGeometry>
        </mxCell>
        <mxCell id="4VgvDbEDUMYowoK3cAxi-22" value="" style="endArrow=none;html=1;rounded=0;" parent="1" edge="1">
          <mxGeometry width="50" height="50" relative="1" as="geometry">
            <mxPoint x="1430" y="780" as="sourcePoint" />
            <mxPoint x="1500" y="720" as="targetPoint" />
          </mxGeometry>
        </mxCell>
        <mxCell id="4VgvDbEDUMYowoK3cAxi-23" value="" style="endArrow=none;html=1;rounded=0;" parent="1" edge="1">
          <mxGeometry width="50" height="50" relative="1" as="geometry">
            <mxPoint x="1250" y="470" as="sourcePoint" />
            <mxPoint x="1500" y="720" as="targetPoint" />
          </mxGeometry>
        </mxCell>
        <mxCell id="2FmigATYJ10FbjpoCft7-1" value="Political party" style="shape=table;startSize=30;container=1;collapsible=1;childLayout=tableLayout;fixedRows=1;rowLines=0;fontStyle=1;align=center;resizeLast=1;html=1;" vertex="1" parent="1">
          <mxGeometry x="2390" y="-450" width="180" height="160" as="geometry" />
        </mxCell>
        <mxCell id="2FmigATYJ10FbjpoCft7-2" value="" style="shape=tableRow;horizontal=0;startSize=0;swimlaneHead=0;swimlaneBody=0;fillColor=none;collapsible=0;dropTarget=0;points=[[0,0.5],[1,0.5]];portConstraint=eastwest;top=0;left=0;right=0;bottom=1;" vertex="1" parent="2FmigATYJ10FbjpoCft7-1">
          <mxGeometry y="30" width="180" height="30" as="geometry" />
        </mxCell>
        <mxCell id="2FmigATYJ10FbjpoCft7-3" value="PK" style="shape=partialRectangle;connectable=0;fillColor=none;top=0;left=0;bottom=0;right=0;fontStyle=1;overflow=hidden;whiteSpace=wrap;html=1;" vertex="1" parent="2FmigATYJ10FbjpoCft7-2">
          <mxGeometry width="30" height="30" as="geometry">
            <mxRectangle width="30" height="30" as="alternateBounds" />
          </mxGeometry>
        </mxCell>
        <mxCell id="2FmigATYJ10FbjpoCft7-4" value="Party ID" style="shape=partialRectangle;connectable=0;fillColor=none;top=0;left=0;bottom=0;right=0;align=left;spacingLeft=6;fontStyle=5;overflow=hidden;whiteSpace=wrap;html=1;" vertex="1" parent="2FmigATYJ10FbjpoCft7-2">
          <mxGeometry x="30" width="150" height="30" as="geometry">
            <mxRectangle width="150" height="30" as="alternateBounds" />
          </mxGeometry>
        </mxCell>
        <mxCell id="2FmigATYJ10FbjpoCft7-5" value="" style="shape=tableRow;horizontal=0;startSize=0;swimlaneHead=0;swimlaneBody=0;fillColor=none;collapsible=0;dropTarget=0;points=[[0,0.5],[1,0.5]];portConstraint=eastwest;top=0;left=0;right=0;bottom=0;" vertex="1" parent="2FmigATYJ10FbjpoCft7-1">
          <mxGeometry y="60" width="180" height="40" as="geometry" />
        </mxCell>
        <mxCell id="2FmigATYJ10FbjpoCft7-6" value="" style="shape=partialRectangle;connectable=0;fillColor=none;top=0;left=0;bottom=0;right=0;editable=1;overflow=hidden;whiteSpace=wrap;html=1;" vertex="1" parent="2FmigATYJ10FbjpoCft7-5">
          <mxGeometry width="30" height="40" as="geometry">
            <mxRectangle width="30" height="40" as="alternateBounds" />
          </mxGeometry>
        </mxCell>
        <mxCell id="2FmigATYJ10FbjpoCft7-7" value="Name" style="shape=partialRectangle;connectable=0;fillColor=none;top=0;left=0;bottom=0;right=0;align=left;spacingLeft=6;overflow=hidden;whiteSpace=wrap;html=1;" vertex="1" parent="2FmigATYJ10FbjpoCft7-5">
          <mxGeometry x="30" width="150" height="40" as="geometry">
            <mxRectangle width="150" height="40" as="alternateBounds" />
          </mxGeometry>
        </mxCell>
        <mxCell id="2FmigATYJ10FbjpoCft7-8" value="" style="shape=tableRow;horizontal=0;startSize=0;swimlaneHead=0;swimlaneBody=0;fillColor=none;collapsible=0;dropTarget=0;points=[[0,0.5],[1,0.5]];portConstraint=eastwest;top=0;left=0;right=0;bottom=0;" vertex="1" parent="2FmigATYJ10FbjpoCft7-1">
          <mxGeometry y="100" width="180" height="40" as="geometry" />
        </mxCell>
        <mxCell id="2FmigATYJ10FbjpoCft7-9" value="" style="shape=partialRectangle;connectable=0;fillColor=none;top=0;left=0;bottom=0;right=0;editable=1;overflow=hidden;whiteSpace=wrap;html=1;" vertex="1" parent="2FmigATYJ10FbjpoCft7-8">
          <mxGeometry width="30" height="40" as="geometry">
            <mxRectangle width="30" height="40" as="alternateBounds" />
          </mxGeometry>
        </mxCell>
        <mxCell id="2FmigATYJ10FbjpoCft7-10" value="Ideology" style="shape=partialRectangle;connectable=0;fillColor=none;top=0;left=0;bottom=0;right=0;align=left;spacingLeft=6;overflow=hidden;whiteSpace=wrap;html=1;" vertex="1" parent="2FmigATYJ10FbjpoCft7-8">
          <mxGeometry x="30" width="150" height="40" as="geometry">
            <mxRectangle width="150" height="40" as="alternateBounds" />
          </mxGeometry>
        </mxCell>
        <mxCell id="2FmigATYJ10FbjpoCft7-11" value="" style="shape=tableRow;horizontal=0;startSize=0;swimlaneHead=0;swimlaneBody=0;fillColor=none;collapsible=0;dropTarget=0;points=[[0,0.5],[1,0.5]];portConstraint=eastwest;top=0;left=0;right=0;bottom=0;" vertex="1" parent="2FmigATYJ10FbjpoCft7-1">
          <mxGeometry y="140" width="180" height="20" as="geometry" />
        </mxCell>
        <mxCell id="2FmigATYJ10FbjpoCft7-12" value="" style="shape=partialRectangle;connectable=0;fillColor=none;top=0;left=0;bottom=0;right=0;editable=1;overflow=hidden;whiteSpace=wrap;html=1;" vertex="1" parent="2FmigATYJ10FbjpoCft7-11">
          <mxGeometry width="30" height="20" as="geometry">
            <mxRectangle width="30" height="20" as="alternateBounds" />
          </mxGeometry>
        </mxCell>
        <mxCell id="2FmigATYJ10FbjpoCft7-13" value="" style="shape=partialRectangle;connectable=0;fillColor=none;top=0;left=0;bottom=0;right=0;align=left;spacingLeft=6;overflow=hidden;whiteSpace=wrap;html=1;" vertex="1" parent="2FmigATYJ10FbjpoCft7-11">
          <mxGeometry x="30" width="150" height="20" as="geometry">
            <mxRectangle width="150" height="20" as="alternateBounds" />
          </mxGeometry>
        </mxCell>
        <mxCell id="2FmigATYJ10FbjpoCft7-15" value="Candidate&amp;nbsp;" style="shape=table;startSize=40;container=1;collapsible=1;childLayout=tableLayout;fixedRows=1;rowLines=0;fontStyle=1;align=center;resizeLast=1;html=1;" vertex="1" parent="1">
          <mxGeometry x="2035" y="-250" width="180" height="220" as="geometry" />
        </mxCell>
        <mxCell id="2FmigATYJ10FbjpoCft7-16" value="" style="shape=tableRow;horizontal=0;startSize=0;swimlaneHead=0;swimlaneBody=0;fillColor=none;collapsible=0;dropTarget=0;points=[[0,0.5],[1,0.5]];portConstraint=eastwest;top=0;left=0;right=0;bottom=1;" vertex="1" parent="2FmigATYJ10FbjpoCft7-15">
          <mxGeometry y="40" width="180" height="30" as="geometry" />
        </mxCell>
        <mxCell id="2FmigATYJ10FbjpoCft7-17" value="PK" style="shape=partialRectangle;connectable=0;fillColor=none;top=0;left=0;bottom=0;right=0;fontStyle=1;overflow=hidden;whiteSpace=wrap;html=1;" vertex="1" parent="2FmigATYJ10FbjpoCft7-16">
          <mxGeometry width="30" height="30" as="geometry">
            <mxRectangle width="30" height="30" as="alternateBounds" />
          </mxGeometry>
        </mxCell>
        <mxCell id="2FmigATYJ10FbjpoCft7-18" value="Candidate ID" style="shape=partialRectangle;connectable=0;fillColor=none;top=0;left=0;bottom=0;right=0;align=left;spacingLeft=6;fontStyle=5;overflow=hidden;whiteSpace=wrap;html=1;" vertex="1" parent="2FmigATYJ10FbjpoCft7-16">
          <mxGeometry x="30" width="150" height="30" as="geometry">
            <mxRectangle width="150" height="30" as="alternateBounds" />
          </mxGeometry>
        </mxCell>
        <mxCell id="2FmigATYJ10FbjpoCft7-19" value="" style="shape=tableRow;horizontal=0;startSize=0;swimlaneHead=0;swimlaneBody=0;fillColor=none;collapsible=0;dropTarget=0;points=[[0,0.5],[1,0.5]];portConstraint=eastwest;top=0;left=0;right=0;bottom=0;" vertex="1" parent="2FmigATYJ10FbjpoCft7-15">
          <mxGeometry y="70" width="180" height="30" as="geometry" />
        </mxCell>
        <mxCell id="2FmigATYJ10FbjpoCft7-20" value="" style="shape=partialRectangle;connectable=0;fillColor=none;top=0;left=0;bottom=0;right=0;editable=1;overflow=hidden;whiteSpace=wrap;html=1;" vertex="1" parent="2FmigATYJ10FbjpoCft7-19">
          <mxGeometry width="30" height="30" as="geometry">
            <mxRectangle width="30" height="30" as="alternateBounds" />
          </mxGeometry>
        </mxCell>
        <mxCell id="2FmigATYJ10FbjpoCft7-21" value="First name" style="shape=partialRectangle;connectable=0;fillColor=none;top=0;left=0;bottom=0;right=0;align=left;spacingLeft=6;overflow=hidden;whiteSpace=wrap;html=1;" vertex="1" parent="2FmigATYJ10FbjpoCft7-19">
          <mxGeometry x="30" width="150" height="30" as="geometry">
            <mxRectangle width="150" height="30" as="alternateBounds" />
          </mxGeometry>
        </mxCell>
        <mxCell id="2FmigATYJ10FbjpoCft7-22" value="" style="shape=tableRow;horizontal=0;startSize=0;swimlaneHead=0;swimlaneBody=0;fillColor=none;collapsible=0;dropTarget=0;points=[[0,0.5],[1,0.5]];portConstraint=eastwest;top=0;left=0;right=0;bottom=0;" vertex="1" parent="2FmigATYJ10FbjpoCft7-15">
          <mxGeometry y="100" width="180" height="30" as="geometry" />
        </mxCell>
        <mxCell id="2FmigATYJ10FbjpoCft7-23" value="" style="shape=partialRectangle;connectable=0;fillColor=none;top=0;left=0;bottom=0;right=0;editable=1;overflow=hidden;whiteSpace=wrap;html=1;" vertex="1" parent="2FmigATYJ10FbjpoCft7-22">
          <mxGeometry width="30" height="30" as="geometry">
            <mxRectangle width="30" height="30" as="alternateBounds" />
          </mxGeometry>
        </mxCell>
        <mxCell id="2FmigATYJ10FbjpoCft7-24" value="Last name" style="shape=partialRectangle;connectable=0;fillColor=none;top=0;left=0;bottom=0;right=0;align=left;spacingLeft=6;overflow=hidden;whiteSpace=wrap;html=1;" vertex="1" parent="2FmigATYJ10FbjpoCft7-22">
          <mxGeometry x="30" width="150" height="30" as="geometry">
            <mxRectangle width="150" height="30" as="alternateBounds" />
          </mxGeometry>
        </mxCell>
        <mxCell id="2FmigATYJ10FbjpoCft7-25" value="" style="shape=tableRow;horizontal=0;startSize=0;swimlaneHead=0;swimlaneBody=0;fillColor=none;collapsible=0;dropTarget=0;points=[[0,0.5],[1,0.5]];portConstraint=eastwest;top=0;left=0;right=0;bottom=0;" vertex="1" parent="2FmigATYJ10FbjpoCft7-15">
          <mxGeometry y="130" width="180" height="30" as="geometry" />
        </mxCell>
        <mxCell id="2FmigATYJ10FbjpoCft7-26" value="" style="shape=partialRectangle;connectable=0;fillColor=none;top=0;left=0;bottom=0;right=0;editable=1;overflow=hidden;whiteSpace=wrap;html=1;" vertex="1" parent="2FmigATYJ10FbjpoCft7-25">
          <mxGeometry width="30" height="30" as="geometry">
            <mxRectangle width="30" height="30" as="alternateBounds" />
          </mxGeometry>
        </mxCell>
        <mxCell id="2FmigATYJ10FbjpoCft7-27" value="Party affiliation" style="shape=partialRectangle;connectable=0;fillColor=none;top=0;left=0;bottom=0;right=0;align=left;spacingLeft=6;overflow=hidden;whiteSpace=wrap;html=1;" vertex="1" parent="2FmigATYJ10FbjpoCft7-25">
          <mxGeometry x="30" width="150" height="30" as="geometry">
            <mxRectangle width="150" height="30" as="alternateBounds" />
          </mxGeometry>
        </mxCell>
        <mxCell id="2FmigATYJ10FbjpoCft7-29" value="" style="shape=tableRow;horizontal=0;startSize=0;swimlaneHead=0;swimlaneBody=0;fillColor=none;collapsible=0;dropTarget=0;points=[[0,0.5],[1,0.5]];portConstraint=eastwest;top=0;left=0;right=0;bottom=0;" vertex="1" parent="2FmigATYJ10FbjpoCft7-15">
          <mxGeometry y="160" width="180" height="30" as="geometry" />
        </mxCell>
        <mxCell id="2FmigATYJ10FbjpoCft7-30" value="" style="shape=partialRectangle;connectable=0;fillColor=none;top=0;left=0;bottom=0;right=0;editable=1;overflow=hidden;whiteSpace=wrap;html=1;" vertex="1" parent="2FmigATYJ10FbjpoCft7-29">
          <mxGeometry width="30" height="30" as="geometry">
            <mxRectangle width="30" height="30" as="alternateBounds" />
          </mxGeometry>
        </mxCell>
        <mxCell id="2FmigATYJ10FbjpoCft7-31" value="Campaign platform" style="shape=partialRectangle;connectable=0;fillColor=none;top=0;left=0;bottom=0;right=0;align=left;spacingLeft=6;overflow=hidden;whiteSpace=wrap;html=1;" vertex="1" parent="2FmigATYJ10FbjpoCft7-29">
          <mxGeometry x="30" width="150" height="30" as="geometry">
            <mxRectangle width="150" height="30" as="alternateBounds" />
          </mxGeometry>
        </mxCell>
        <mxCell id="2FmigATYJ10FbjpoCft7-45" value="" style="shape=tableRow;horizontal=0;startSize=0;swimlaneHead=0;swimlaneBody=0;fillColor=none;collapsible=0;dropTarget=0;points=[[0,0.5],[1,0.5]];portConstraint=eastwest;top=0;left=0;right=0;bottom=1;" vertex="1" parent="2FmigATYJ10FbjpoCft7-15">
          <mxGeometry y="190" width="180" height="30" as="geometry" />
        </mxCell>
        <mxCell id="2FmigATYJ10FbjpoCft7-46" value="MV" style="shape=partialRectangle;connectable=0;fillColor=none;top=0;left=0;bottom=0;right=0;fontStyle=1;overflow=hidden;whiteSpace=wrap;html=1;" vertex="1" parent="2FmigATYJ10FbjpoCft7-45">
          <mxGeometry width="30" height="30" as="geometry">
            <mxRectangle width="30" height="30" as="alternateBounds" />
          </mxGeometry>
        </mxCell>
        <mxCell id="2FmigATYJ10FbjpoCft7-47" value="Contact number" style="shape=partialRectangle;connectable=0;fillColor=none;top=0;left=0;bottom=0;right=0;align=left;spacingLeft=6;fontStyle=5;overflow=hidden;whiteSpace=wrap;html=1;" vertex="1" parent="2FmigATYJ10FbjpoCft7-45">
          <mxGeometry x="30" width="150" height="30" as="geometry">
            <mxRectangle width="150" height="30" as="alternateBounds" />
          </mxGeometry>
        </mxCell>
        <mxCell id="2FmigATYJ10FbjpoCft7-32" value="Constituency" style="shape=table;startSize=30;container=1;collapsible=1;childLayout=tableLayout;fixedRows=1;rowLines=0;fontStyle=1;align=center;resizeLast=1;html=1;" vertex="1" parent="1">
          <mxGeometry x="1860" y="290" width="180" height="140" as="geometry" />
        </mxCell>
        <mxCell id="2FmigATYJ10FbjpoCft7-33" value="" style="shape=tableRow;horizontal=0;startSize=0;swimlaneHead=0;swimlaneBody=0;fillColor=none;collapsible=0;dropTarget=0;points=[[0,0.5],[1,0.5]];portConstraint=eastwest;top=0;left=0;right=0;bottom=1;" vertex="1" parent="2FmigATYJ10FbjpoCft7-32">
          <mxGeometry y="30" width="180" height="30" as="geometry" />
        </mxCell>
        <mxCell id="2FmigATYJ10FbjpoCft7-34" value="PK" style="shape=partialRectangle;connectable=0;fillColor=none;top=0;left=0;bottom=0;right=0;fontStyle=1;overflow=hidden;whiteSpace=wrap;html=1;" vertex="1" parent="2FmigATYJ10FbjpoCft7-33">
          <mxGeometry width="30" height="30" as="geometry">
            <mxRectangle width="30" height="30" as="alternateBounds" />
          </mxGeometry>
        </mxCell>
        <mxCell id="2FmigATYJ10FbjpoCft7-35" value="Constituency ID" style="shape=partialRectangle;connectable=0;fillColor=none;top=0;left=0;bottom=0;right=0;align=left;spacingLeft=6;fontStyle=5;overflow=hidden;whiteSpace=wrap;html=1;" vertex="1" parent="2FmigATYJ10FbjpoCft7-33">
          <mxGeometry x="30" width="150" height="30" as="geometry">
            <mxRectangle width="150" height="30" as="alternateBounds" />
          </mxGeometry>
        </mxCell>
        <mxCell id="2FmigATYJ10FbjpoCft7-36" value="" style="shape=tableRow;horizontal=0;startSize=0;swimlaneHead=0;swimlaneBody=0;fillColor=none;collapsible=0;dropTarget=0;points=[[0,0.5],[1,0.5]];portConstraint=eastwest;top=0;left=0;right=0;bottom=0;" vertex="1" parent="2FmigATYJ10FbjpoCft7-32">
          <mxGeometry y="60" width="180" height="20" as="geometry" />
        </mxCell>
        <mxCell id="2FmigATYJ10FbjpoCft7-37" value="" style="shape=partialRectangle;connectable=0;fillColor=none;top=0;left=0;bottom=0;right=0;editable=1;overflow=hidden;whiteSpace=wrap;html=1;" vertex="1" parent="2FmigATYJ10FbjpoCft7-36">
          <mxGeometry width="30" height="20" as="geometry">
            <mxRectangle width="30" height="20" as="alternateBounds" />
          </mxGeometry>
        </mxCell>
        <mxCell id="2FmigATYJ10FbjpoCft7-38" value="Name" style="shape=partialRectangle;connectable=0;fillColor=none;top=0;left=0;bottom=0;right=0;align=left;spacingLeft=6;overflow=hidden;whiteSpace=wrap;html=1;" vertex="1" parent="2FmigATYJ10FbjpoCft7-36">
          <mxGeometry x="30" width="150" height="20" as="geometry">
            <mxRectangle width="150" height="20" as="alternateBounds" />
          </mxGeometry>
        </mxCell>
        <mxCell id="2FmigATYJ10FbjpoCft7-39" value="" style="shape=tableRow;horizontal=0;startSize=0;swimlaneHead=0;swimlaneBody=0;fillColor=none;collapsible=0;dropTarget=0;points=[[0,0.5],[1,0.5]];portConstraint=eastwest;top=0;left=0;right=0;bottom=0;" vertex="1" parent="2FmigATYJ10FbjpoCft7-32">
          <mxGeometry y="80" width="180" height="30" as="geometry" />
        </mxCell>
        <mxCell id="2FmigATYJ10FbjpoCft7-40" value="" style="shape=partialRectangle;connectable=0;fillColor=none;top=0;left=0;bottom=0;right=0;editable=1;overflow=hidden;whiteSpace=wrap;html=1;" vertex="1" parent="2FmigATYJ10FbjpoCft7-39">
          <mxGeometry width="30" height="30" as="geometry">
            <mxRectangle width="30" height="30" as="alternateBounds" />
          </mxGeometry>
        </mxCell>
        <mxCell id="2FmigATYJ10FbjpoCft7-41" value="Region" style="shape=partialRectangle;connectable=0;fillColor=none;top=0;left=0;bottom=0;right=0;align=left;spacingLeft=6;overflow=hidden;whiteSpace=wrap;html=1;" vertex="1" parent="2FmigATYJ10FbjpoCft7-39">
          <mxGeometry x="30" width="150" height="30" as="geometry">
            <mxRectangle width="150" height="30" as="alternateBounds" />
          </mxGeometry>
        </mxCell>
        <mxCell id="2FmigATYJ10FbjpoCft7-42" value="" style="shape=tableRow;horizontal=0;startSize=0;swimlaneHead=0;swimlaneBody=0;fillColor=none;collapsible=0;dropTarget=0;points=[[0,0.5],[1,0.5]];portConstraint=eastwest;top=0;left=0;right=0;bottom=0;" vertex="1" parent="2FmigATYJ10FbjpoCft7-32">
          <mxGeometry y="110" width="180" height="30" as="geometry" />
        </mxCell>
        <mxCell id="2FmigATYJ10FbjpoCft7-43" value="" style="shape=partialRectangle;connectable=0;fillColor=none;top=0;left=0;bottom=0;right=0;editable=1;overflow=hidden;whiteSpace=wrap;html=1;" vertex="1" parent="2FmigATYJ10FbjpoCft7-42">
          <mxGeometry width="30" height="30" as="geometry">
            <mxRectangle width="30" height="30" as="alternateBounds" />
          </mxGeometry>
        </mxCell>
        <mxCell id="2FmigATYJ10FbjpoCft7-44" value="Donor" style="shape=partialRectangle;connectable=0;fillColor=none;top=0;left=0;bottom=0;right=0;align=left;spacingLeft=6;overflow=hidden;whiteSpace=wrap;html=1;" vertex="1" parent="2FmigATYJ10FbjpoCft7-42">
          <mxGeometry x="30" width="150" height="30" as="geometry">
            <mxRectangle width="150" height="30" as="alternateBounds" />
          </mxGeometry>
        </mxCell>
        <mxCell id="2FmigATYJ10FbjpoCft7-48" value="Campaign" style="shape=table;startSize=40;container=1;collapsible=1;childLayout=tableLayout;fixedRows=1;rowLines=0;fontStyle=1;align=center;resizeLast=1;html=1;" vertex="1" parent="1">
          <mxGeometry x="2370" y="-45" width="180" height="190" as="geometry" />
        </mxCell>
        <mxCell id="2FmigATYJ10FbjpoCft7-49" value="" style="shape=tableRow;horizontal=0;startSize=0;swimlaneHead=0;swimlaneBody=0;fillColor=none;collapsible=0;dropTarget=0;points=[[0,0.5],[1,0.5]];portConstraint=eastwest;top=0;left=0;right=0;bottom=1;" vertex="1" parent="2FmigATYJ10FbjpoCft7-48">
          <mxGeometry y="40" width="180" height="30" as="geometry" />
        </mxCell>
        <mxCell id="2FmigATYJ10FbjpoCft7-50" value="PK" style="shape=partialRectangle;connectable=0;fillColor=none;top=0;left=0;bottom=0;right=0;fontStyle=1;overflow=hidden;whiteSpace=wrap;html=1;" vertex="1" parent="2FmigATYJ10FbjpoCft7-49">
          <mxGeometry width="30" height="30" as="geometry">
            <mxRectangle width="30" height="30" as="alternateBounds" />
          </mxGeometry>
        </mxCell>
        <mxCell id="2FmigATYJ10FbjpoCft7-51" value="Campaign ID" style="shape=partialRectangle;connectable=0;fillColor=none;top=0;left=0;bottom=0;right=0;align=left;spacingLeft=6;fontStyle=5;overflow=hidden;whiteSpace=wrap;html=1;" vertex="1" parent="2FmigATYJ10FbjpoCft7-49">
          <mxGeometry x="30" width="150" height="30" as="geometry">
            <mxRectangle width="150" height="30" as="alternateBounds" />
          </mxGeometry>
        </mxCell>
        <mxCell id="2FmigATYJ10FbjpoCft7-52" value="" style="shape=tableRow;horizontal=0;startSize=0;swimlaneHead=0;swimlaneBody=0;fillColor=none;collapsible=0;dropTarget=0;points=[[0,0.5],[1,0.5]];portConstraint=eastwest;top=0;left=0;right=0;bottom=0;" vertex="1" parent="2FmigATYJ10FbjpoCft7-48">
          <mxGeometry y="70" width="180" height="30" as="geometry" />
        </mxCell>
        <mxCell id="2FmigATYJ10FbjpoCft7-53" value="" style="shape=partialRectangle;connectable=0;fillColor=none;top=0;left=0;bottom=0;right=0;editable=1;overflow=hidden;whiteSpace=wrap;html=1;" vertex="1" parent="2FmigATYJ10FbjpoCft7-52">
          <mxGeometry width="30" height="30" as="geometry">
            <mxRectangle width="30" height="30" as="alternateBounds" />
          </mxGeometry>
        </mxCell>
        <mxCell id="2FmigATYJ10FbjpoCft7-54" value="Start date" style="shape=partialRectangle;connectable=0;fillColor=none;top=0;left=0;bottom=0;right=0;align=left;spacingLeft=6;overflow=hidden;whiteSpace=wrap;html=1;" vertex="1" parent="2FmigATYJ10FbjpoCft7-52">
          <mxGeometry x="30" width="150" height="30" as="geometry">
            <mxRectangle width="150" height="30" as="alternateBounds" />
          </mxGeometry>
        </mxCell>
        <mxCell id="2FmigATYJ10FbjpoCft7-55" value="" style="shape=tableRow;horizontal=0;startSize=0;swimlaneHead=0;swimlaneBody=0;fillColor=none;collapsible=0;dropTarget=0;points=[[0,0.5],[1,0.5]];portConstraint=eastwest;top=0;left=0;right=0;bottom=0;" vertex="1" parent="2FmigATYJ10FbjpoCft7-48">
          <mxGeometry y="100" width="180" height="30" as="geometry" />
        </mxCell>
        <mxCell id="2FmigATYJ10FbjpoCft7-56" value="" style="shape=partialRectangle;connectable=0;fillColor=none;top=0;left=0;bottom=0;right=0;editable=1;overflow=hidden;whiteSpace=wrap;html=1;" vertex="1" parent="2FmigATYJ10FbjpoCft7-55">
          <mxGeometry width="30" height="30" as="geometry">
            <mxRectangle width="30" height="30" as="alternateBounds" />
          </mxGeometry>
        </mxCell>
        <mxCell id="2FmigATYJ10FbjpoCft7-57" value="End date" style="shape=partialRectangle;connectable=0;fillColor=none;top=0;left=0;bottom=0;right=0;align=left;spacingLeft=6;overflow=hidden;whiteSpace=wrap;html=1;" vertex="1" parent="2FmigATYJ10FbjpoCft7-55">
          <mxGeometry x="30" width="150" height="30" as="geometry">
            <mxRectangle width="150" height="30" as="alternateBounds" />
          </mxGeometry>
        </mxCell>
        <mxCell id="2FmigATYJ10FbjpoCft7-58" value="" style="shape=tableRow;horizontal=0;startSize=0;swimlaneHead=0;swimlaneBody=0;fillColor=none;collapsible=0;dropTarget=0;points=[[0,0.5],[1,0.5]];portConstraint=eastwest;top=0;left=0;right=0;bottom=0;" vertex="1" parent="2FmigATYJ10FbjpoCft7-48">
          <mxGeometry y="130" width="180" height="30" as="geometry" />
        </mxCell>
        <mxCell id="2FmigATYJ10FbjpoCft7-59" value="" style="shape=partialRectangle;connectable=0;fillColor=none;top=0;left=0;bottom=0;right=0;editable=1;overflow=hidden;whiteSpace=wrap;html=1;" vertex="1" parent="2FmigATYJ10FbjpoCft7-58">
          <mxGeometry width="30" height="30" as="geometry">
            <mxRectangle width="30" height="30" as="alternateBounds" />
          </mxGeometry>
        </mxCell>
        <mxCell id="2FmigATYJ10FbjpoCft7-60" value="Budget" style="shape=partialRectangle;connectable=0;fillColor=none;top=0;left=0;bottom=0;right=0;align=left;spacingLeft=6;overflow=hidden;whiteSpace=wrap;html=1;" vertex="1" parent="2FmigATYJ10FbjpoCft7-58">
          <mxGeometry x="30" width="150" height="30" as="geometry">
            <mxRectangle width="150" height="30" as="alternateBounds" />
          </mxGeometry>
        </mxCell>
        <mxCell id="2FmigATYJ10FbjpoCft7-61" value="" style="shape=tableRow;horizontal=0;startSize=0;swimlaneHead=0;swimlaneBody=0;fillColor=none;collapsible=0;dropTarget=0;points=[[0,0.5],[1,0.5]];portConstraint=eastwest;top=0;left=0;right=0;bottom=1;" vertex="1" parent="2FmigATYJ10FbjpoCft7-48">
          <mxGeometry y="160" width="180" height="30" as="geometry" />
        </mxCell>
        <mxCell id="2FmigATYJ10FbjpoCft7-62" value="DA" style="shape=partialRectangle;connectable=0;fillColor=none;top=0;left=0;bottom=0;right=0;fontStyle=1;overflow=hidden;whiteSpace=wrap;html=1;" vertex="1" parent="2FmigATYJ10FbjpoCft7-61">
          <mxGeometry width="30" height="30" as="geometry">
            <mxRectangle width="30" height="30" as="alternateBounds" />
          </mxGeometry>
        </mxCell>
        <mxCell id="2FmigATYJ10FbjpoCft7-63" value="Duration" style="shape=partialRectangle;connectable=0;fillColor=none;top=0;left=0;bottom=0;right=0;align=left;spacingLeft=6;fontStyle=5;overflow=hidden;whiteSpace=wrap;html=1;" vertex="1" parent="2FmigATYJ10FbjpoCft7-61">
          <mxGeometry x="30" width="150" height="30" as="geometry">
            <mxRectangle width="150" height="30" as="alternateBounds" />
          </mxGeometry>
        </mxCell>
        <mxCell id="2FmigATYJ10FbjpoCft7-64" value="Donor&amp;nbsp;" style="shape=table;startSize=40;container=1;collapsible=1;childLayout=tableLayout;fixedRows=1;rowLines=0;fontStyle=1;align=center;resizeLast=1;html=1;" vertex="1" parent="1">
          <mxGeometry x="2125" y="435" width="180" height="210" as="geometry" />
        </mxCell>
        <mxCell id="2FmigATYJ10FbjpoCft7-65" value="" style="shape=tableRow;horizontal=0;startSize=0;swimlaneHead=0;swimlaneBody=0;fillColor=none;collapsible=0;dropTarget=0;points=[[0,0.5],[1,0.5]];portConstraint=eastwest;top=0;left=0;right=0;bottom=1;" vertex="1" parent="2FmigATYJ10FbjpoCft7-64">
          <mxGeometry y="40" width="180" height="30" as="geometry" />
        </mxCell>
        <mxCell id="2FmigATYJ10FbjpoCft7-66" value="PK" style="shape=partialRectangle;connectable=0;fillColor=none;top=0;left=0;bottom=0;right=0;fontStyle=1;overflow=hidden;whiteSpace=wrap;html=1;" vertex="1" parent="2FmigATYJ10FbjpoCft7-65">
          <mxGeometry width="30" height="30" as="geometry">
            <mxRectangle width="30" height="30" as="alternateBounds" />
          </mxGeometry>
        </mxCell>
        <mxCell id="2FmigATYJ10FbjpoCft7-67" value="Donor ID" style="shape=partialRectangle;connectable=0;fillColor=none;top=0;left=0;bottom=0;right=0;align=left;spacingLeft=6;fontStyle=5;overflow=hidden;whiteSpace=wrap;html=1;" vertex="1" parent="2FmigATYJ10FbjpoCft7-65">
          <mxGeometry x="30" width="150" height="30" as="geometry">
            <mxRectangle width="150" height="30" as="alternateBounds" />
          </mxGeometry>
        </mxCell>
        <mxCell id="2FmigATYJ10FbjpoCft7-68" value="" style="shape=tableRow;horizontal=0;startSize=0;swimlaneHead=0;swimlaneBody=0;fillColor=none;collapsible=0;dropTarget=0;points=[[0,0.5],[1,0.5]];portConstraint=eastwest;top=0;left=0;right=0;bottom=0;" vertex="1" parent="2FmigATYJ10FbjpoCft7-64">
          <mxGeometry y="70" width="180" height="30" as="geometry" />
        </mxCell>
        <mxCell id="2FmigATYJ10FbjpoCft7-69" value="" style="shape=partialRectangle;connectable=0;fillColor=none;top=0;left=0;bottom=0;right=0;editable=1;overflow=hidden;whiteSpace=wrap;html=1;" vertex="1" parent="2FmigATYJ10FbjpoCft7-68">
          <mxGeometry width="30" height="30" as="geometry">
            <mxRectangle width="30" height="30" as="alternateBounds" />
          </mxGeometry>
        </mxCell>
        <mxCell id="2FmigATYJ10FbjpoCft7-70" value="Name" style="shape=partialRectangle;connectable=0;fillColor=none;top=0;left=0;bottom=0;right=0;align=left;spacingLeft=6;overflow=hidden;whiteSpace=wrap;html=1;" vertex="1" parent="2FmigATYJ10FbjpoCft7-68">
          <mxGeometry x="30" width="150" height="30" as="geometry">
            <mxRectangle width="150" height="30" as="alternateBounds" />
          </mxGeometry>
        </mxCell>
        <mxCell id="2FmigATYJ10FbjpoCft7-71" value="" style="shape=tableRow;horizontal=0;startSize=0;swimlaneHead=0;swimlaneBody=0;fillColor=none;collapsible=0;dropTarget=0;points=[[0,0.5],[1,0.5]];portConstraint=eastwest;top=0;left=0;right=0;bottom=0;" vertex="1" parent="2FmigATYJ10FbjpoCft7-64">
          <mxGeometry y="100" width="180" height="30" as="geometry" />
        </mxCell>
        <mxCell id="2FmigATYJ10FbjpoCft7-72" value="" style="shape=partialRectangle;connectable=0;fillColor=none;top=0;left=0;bottom=0;right=0;editable=1;overflow=hidden;whiteSpace=wrap;html=1;" vertex="1" parent="2FmigATYJ10FbjpoCft7-71">
          <mxGeometry width="30" height="30" as="geometry">
            <mxRectangle width="30" height="30" as="alternateBounds" />
          </mxGeometry>
        </mxCell>
        <mxCell id="2FmigATYJ10FbjpoCft7-73" value="Amount" style="shape=partialRectangle;connectable=0;fillColor=none;top=0;left=0;bottom=0;right=0;align=left;spacingLeft=6;overflow=hidden;whiteSpace=wrap;html=1;" vertex="1" parent="2FmigATYJ10FbjpoCft7-71">
          <mxGeometry x="30" width="150" height="30" as="geometry">
            <mxRectangle width="150" height="30" as="alternateBounds" />
          </mxGeometry>
        </mxCell>
        <mxCell id="2FmigATYJ10FbjpoCft7-74" value="" style="shape=tableRow;horizontal=0;startSize=0;swimlaneHead=0;swimlaneBody=0;fillColor=none;collapsible=0;dropTarget=0;points=[[0,0.5],[1,0.5]];portConstraint=eastwest;top=0;left=0;right=0;bottom=0;" vertex="1" parent="2FmigATYJ10FbjpoCft7-64">
          <mxGeometry y="130" width="180" height="30" as="geometry" />
        </mxCell>
        <mxCell id="2FmigATYJ10FbjpoCft7-75" value="" style="shape=partialRectangle;connectable=0;fillColor=none;top=0;left=0;bottom=0;right=0;editable=1;overflow=hidden;whiteSpace=wrap;html=1;" vertex="1" parent="2FmigATYJ10FbjpoCft7-74">
          <mxGeometry width="30" height="30" as="geometry">
            <mxRectangle width="30" height="30" as="alternateBounds" />
          </mxGeometry>
        </mxCell>
        <mxCell id="2FmigATYJ10FbjpoCft7-76" value="Date" style="shape=partialRectangle;connectable=0;fillColor=none;top=0;left=0;bottom=0;right=0;align=left;spacingLeft=6;overflow=hidden;whiteSpace=wrap;html=1;" vertex="1" parent="2FmigATYJ10FbjpoCft7-74">
          <mxGeometry x="30" width="150" height="30" as="geometry">
            <mxRectangle width="150" height="30" as="alternateBounds" />
          </mxGeometry>
        </mxCell>
        <mxCell id="2FmigATYJ10FbjpoCft7-77" value="" style="shape=tableRow;horizontal=0;startSize=0;swimlaneHead=0;swimlaneBody=0;fillColor=none;collapsible=0;dropTarget=0;points=[[0,0.5],[1,0.5]];portConstraint=eastwest;top=0;left=0;right=0;bottom=0;" vertex="1" parent="2FmigATYJ10FbjpoCft7-64">
          <mxGeometry y="160" width="180" height="30" as="geometry" />
        </mxCell>
        <mxCell id="2FmigATYJ10FbjpoCft7-78" value="" style="shape=partialRectangle;connectable=0;fillColor=none;top=0;left=0;bottom=0;right=0;editable=1;overflow=hidden;whiteSpace=wrap;html=1;" vertex="1" parent="2FmigATYJ10FbjpoCft7-77">
          <mxGeometry width="30" height="30" as="geometry">
            <mxRectangle width="30" height="30" as="alternateBounds" />
          </mxGeometry>
        </mxCell>
        <mxCell id="2FmigATYJ10FbjpoCft7-79" value="" style="shape=partialRectangle;connectable=0;fillColor=none;top=0;left=0;bottom=0;right=0;align=left;spacingLeft=6;overflow=hidden;whiteSpace=wrap;html=1;" vertex="1" parent="2FmigATYJ10FbjpoCft7-77">
          <mxGeometry x="30" width="150" height="30" as="geometry">
            <mxRectangle width="150" height="30" as="alternateBounds" />
          </mxGeometry>
        </mxCell>
        <mxCell id="2FmigATYJ10FbjpoCft7-80" value="" style="shape=tableRow;horizontal=0;startSize=0;swimlaneHead=0;swimlaneBody=0;fillColor=none;collapsible=0;dropTarget=0;points=[[0,0.5],[1,0.5]];portConstraint=eastwest;top=0;left=0;right=0;bottom=1;" vertex="1" parent="2FmigATYJ10FbjpoCft7-64">
          <mxGeometry y="190" width="180" height="20" as="geometry" />
        </mxCell>
        <mxCell id="2FmigATYJ10FbjpoCft7-81" value="MV" style="shape=partialRectangle;connectable=0;fillColor=none;top=0;left=0;bottom=0;right=0;fontStyle=1;overflow=hidden;whiteSpace=wrap;html=1;" vertex="1" parent="2FmigATYJ10FbjpoCft7-80">
          <mxGeometry width="30" height="20" as="geometry">
            <mxRectangle width="30" height="20" as="alternateBounds" />
          </mxGeometry>
        </mxCell>
        <mxCell id="2FmigATYJ10FbjpoCft7-82" value="Contact number" style="shape=partialRectangle;connectable=0;fillColor=none;top=0;left=0;bottom=0;right=0;align=left;spacingLeft=6;fontStyle=5;overflow=hidden;whiteSpace=wrap;html=1;" vertex="1" parent="2FmigATYJ10FbjpoCft7-80">
          <mxGeometry x="30" width="150" height="20" as="geometry">
            <mxRectangle width="150" height="20" as="alternateBounds" />
          </mxGeometry>
        </mxCell>
        <mxCell id="2FmigATYJ10FbjpoCft7-83" value="Volunteer" style="shape=table;startSize=30;container=1;collapsible=1;childLayout=tableLayout;fixedRows=1;rowLines=0;fontStyle=1;align=center;resizeLast=1;html=1;whiteSpace=wrap;" vertex="1" parent="1">
          <mxGeometry x="2850" y="250" width="180" height="150" as="geometry" />
        </mxCell>
        <mxCell id="2FmigATYJ10FbjpoCft7-84" value="" style="shape=tableRow;horizontal=0;startSize=0;swimlaneHead=0;swimlaneBody=0;fillColor=none;collapsible=0;dropTarget=0;points=[[0,0.5],[1,0.5]];portConstraint=eastwest;top=0;left=0;right=0;bottom=0;html=1;" vertex="1" parent="2FmigATYJ10FbjpoCft7-83">
          <mxGeometry y="30" width="180" height="30" as="geometry" />
        </mxCell>
        <mxCell id="2FmigATYJ10FbjpoCft7-85" value="PK" style="shape=partialRectangle;connectable=0;fillColor=none;top=0;left=0;bottom=0;right=0;fontStyle=1;overflow=hidden;html=1;whiteSpace=wrap;" vertex="1" parent="2FmigATYJ10FbjpoCft7-84">
          <mxGeometry width="60" height="30" as="geometry">
            <mxRectangle width="60" height="30" as="alternateBounds" />
          </mxGeometry>
        </mxCell>
        <mxCell id="2FmigATYJ10FbjpoCft7-86" value="Volunteer ID" style="shape=partialRectangle;connectable=0;fillColor=none;top=0;left=0;bottom=0;right=0;align=left;spacingLeft=6;fontStyle=5;overflow=hidden;html=1;whiteSpace=wrap;" vertex="1" parent="2FmigATYJ10FbjpoCft7-84">
          <mxGeometry x="60" width="120" height="30" as="geometry">
            <mxRectangle width="120" height="30" as="alternateBounds" />
          </mxGeometry>
        </mxCell>
        <mxCell id="2FmigATYJ10FbjpoCft7-87" value="" style="shape=tableRow;horizontal=0;startSize=0;swimlaneHead=0;swimlaneBody=0;fillColor=none;collapsible=0;dropTarget=0;points=[[0,0.5],[1,0.5]];portConstraint=eastwest;top=0;left=0;right=0;bottom=1;html=1;" vertex="1" parent="2FmigATYJ10FbjpoCft7-83">
          <mxGeometry y="60" width="180" height="20" as="geometry" />
        </mxCell>
        <mxCell id="2FmigATYJ10FbjpoCft7-88" value="FK" style="shape=partialRectangle;connectable=0;fillColor=none;top=0;left=0;bottom=0;right=0;fontStyle=1;overflow=hidden;html=1;whiteSpace=wrap;" vertex="1" parent="2FmigATYJ10FbjpoCft7-87">
          <mxGeometry width="60" height="20" as="geometry">
            <mxRectangle width="60" height="20" as="alternateBounds" />
          </mxGeometry>
        </mxCell>
        <mxCell id="2FmigATYJ10FbjpoCft7-89" value="Campaign ID" style="shape=partialRectangle;connectable=0;fillColor=none;top=0;left=0;bottom=0;right=0;align=left;spacingLeft=6;fontStyle=5;overflow=hidden;html=1;whiteSpace=wrap;" vertex="1" parent="2FmigATYJ10FbjpoCft7-87">
          <mxGeometry x="60" width="120" height="20" as="geometry">
            <mxRectangle width="120" height="20" as="alternateBounds" />
          </mxGeometry>
        </mxCell>
        <mxCell id="2FmigATYJ10FbjpoCft7-90" value="" style="shape=tableRow;horizontal=0;startSize=0;swimlaneHead=0;swimlaneBody=0;fillColor=none;collapsible=0;dropTarget=0;points=[[0,0.5],[1,0.5]];portConstraint=eastwest;top=0;left=0;right=0;bottom=0;html=1;" vertex="1" parent="2FmigATYJ10FbjpoCft7-83">
          <mxGeometry y="80" width="180" height="20" as="geometry" />
        </mxCell>
        <mxCell id="2FmigATYJ10FbjpoCft7-91" value="" style="shape=partialRectangle;connectable=0;fillColor=none;top=0;left=0;bottom=0;right=0;editable=1;overflow=hidden;html=1;whiteSpace=wrap;" vertex="1" parent="2FmigATYJ10FbjpoCft7-90">
          <mxGeometry width="60" height="20" as="geometry">
            <mxRectangle width="60" height="20" as="alternateBounds" />
          </mxGeometry>
        </mxCell>
        <mxCell id="2FmigATYJ10FbjpoCft7-92" value="Name" style="shape=partialRectangle;connectable=0;fillColor=none;top=0;left=0;bottom=0;right=0;align=left;spacingLeft=6;overflow=hidden;html=1;whiteSpace=wrap;" vertex="1" parent="2FmigATYJ10FbjpoCft7-90">
          <mxGeometry x="60" width="120" height="20" as="geometry">
            <mxRectangle width="120" height="20" as="alternateBounds" />
          </mxGeometry>
        </mxCell>
        <mxCell id="2FmigATYJ10FbjpoCft7-93" value="" style="shape=tableRow;horizontal=0;startSize=0;swimlaneHead=0;swimlaneBody=0;fillColor=none;collapsible=0;dropTarget=0;points=[[0,0.5],[1,0.5]];portConstraint=eastwest;top=0;left=0;right=0;bottom=0;html=1;" vertex="1" parent="2FmigATYJ10FbjpoCft7-83">
          <mxGeometry y="100" width="180" height="30" as="geometry" />
        </mxCell>
        <mxCell id="2FmigATYJ10FbjpoCft7-94" value="" style="shape=partialRectangle;connectable=0;fillColor=none;top=0;left=0;bottom=0;right=0;editable=1;overflow=hidden;html=1;whiteSpace=wrap;" vertex="1" parent="2FmigATYJ10FbjpoCft7-93">
          <mxGeometry width="60" height="30" as="geometry">
            <mxRectangle width="60" height="30" as="alternateBounds" />
          </mxGeometry>
        </mxCell>
        <mxCell id="2FmigATYJ10FbjpoCft7-95" value="" style="shape=partialRectangle;connectable=0;fillColor=none;top=0;left=0;bottom=0;right=0;align=left;spacingLeft=6;overflow=hidden;html=1;whiteSpace=wrap;" vertex="1" parent="2FmigATYJ10FbjpoCft7-93">
          <mxGeometry x="60" width="120" height="30" as="geometry">
            <mxRectangle width="120" height="30" as="alternateBounds" />
          </mxGeometry>
        </mxCell>
        <mxCell id="2FmigATYJ10FbjpoCft7-96" value="" style="shape=tableRow;horizontal=0;startSize=0;swimlaneHead=0;swimlaneBody=0;fillColor=none;collapsible=0;dropTarget=0;points=[[0,0.5],[1,0.5]];portConstraint=eastwest;top=0;left=0;right=0;bottom=1;html=1;" vertex="1" parent="2FmigATYJ10FbjpoCft7-83">
          <mxGeometry y="130" width="180" height="20" as="geometry" />
        </mxCell>
        <mxCell id="2FmigATYJ10FbjpoCft7-97" value="MV" style="shape=partialRectangle;connectable=0;fillColor=none;top=0;left=0;bottom=0;right=0;fontStyle=1;overflow=hidden;html=1;whiteSpace=wrap;" vertex="1" parent="2FmigATYJ10FbjpoCft7-96">
          <mxGeometry width="60" height="20" as="geometry">
            <mxRectangle width="60" height="20" as="alternateBounds" />
          </mxGeometry>
        </mxCell>
        <mxCell id="2FmigATYJ10FbjpoCft7-98" value="Contact Number" style="shape=partialRectangle;connectable=0;fillColor=none;top=0;left=0;bottom=0;right=0;align=left;spacingLeft=6;fontStyle=5;overflow=hidden;html=1;whiteSpace=wrap;" vertex="1" parent="2FmigATYJ10FbjpoCft7-96">
          <mxGeometry x="60" width="120" height="20" as="geometry">
            <mxRectangle width="120" height="20" as="alternateBounds" />
          </mxGeometry>
        </mxCell>
        <mxCell id="2FmigATYJ10FbjpoCft7-99" value="Fundraiser" style="shape=table;startSize=30;container=1;collapsible=1;childLayout=tableLayout;fixedRows=1;rowLines=0;fontStyle=1;align=center;resizeLast=1;html=1;whiteSpace=wrap;" vertex="1" parent="1">
          <mxGeometry x="2390" y="530" width="180" height="160" as="geometry" />
        </mxCell>
        <mxCell id="2FmigATYJ10FbjpoCft7-100" value="" style="shape=tableRow;horizontal=0;startSize=0;swimlaneHead=0;swimlaneBody=0;fillColor=none;collapsible=0;dropTarget=0;points=[[0,0.5],[1,0.5]];portConstraint=eastwest;top=0;left=0;right=0;bottom=0;html=1;" vertex="1" parent="2FmigATYJ10FbjpoCft7-99">
          <mxGeometry y="30" width="180" height="30" as="geometry" />
        </mxCell>
        <mxCell id="2FmigATYJ10FbjpoCft7-101" value="FK" style="shape=partialRectangle;connectable=0;fillColor=none;top=0;left=0;bottom=0;right=0;fontStyle=1;overflow=hidden;html=1;whiteSpace=wrap;" vertex="1" parent="2FmigATYJ10FbjpoCft7-100">
          <mxGeometry width="60" height="30" as="geometry">
            <mxRectangle width="60" height="30" as="alternateBounds" />
          </mxGeometry>
        </mxCell>
        <mxCell id="2FmigATYJ10FbjpoCft7-102" value="Campaign ID" style="shape=partialRectangle;connectable=0;fillColor=none;top=0;left=0;bottom=0;right=0;align=left;spacingLeft=6;fontStyle=5;overflow=hidden;html=1;whiteSpace=wrap;" vertex="1" parent="2FmigATYJ10FbjpoCft7-100">
          <mxGeometry x="60" width="120" height="30" as="geometry">
            <mxRectangle width="120" height="30" as="alternateBounds" />
          </mxGeometry>
        </mxCell>
        <mxCell id="2FmigATYJ10FbjpoCft7-106" value="" style="shape=tableRow;horizontal=0;startSize=0;swimlaneHead=0;swimlaneBody=0;fillColor=none;collapsible=0;dropTarget=0;points=[[0,0.5],[1,0.5]];portConstraint=eastwest;top=0;left=0;right=0;bottom=0;html=1;" vertex="1" parent="2FmigATYJ10FbjpoCft7-99">
          <mxGeometry y="60" width="180" height="20" as="geometry" />
        </mxCell>
        <mxCell id="2FmigATYJ10FbjpoCft7-107" value="" style="shape=partialRectangle;connectable=0;fillColor=none;top=0;left=0;bottom=0;right=0;editable=1;overflow=hidden;html=1;whiteSpace=wrap;" vertex="1" parent="2FmigATYJ10FbjpoCft7-106">
          <mxGeometry width="60" height="20" as="geometry">
            <mxRectangle width="60" height="20" as="alternateBounds" />
          </mxGeometry>
        </mxCell>
        <mxCell id="2FmigATYJ10FbjpoCft7-108" value="Name" style="shape=partialRectangle;connectable=0;fillColor=none;top=0;left=0;bottom=0;right=0;align=left;spacingLeft=6;overflow=hidden;html=1;whiteSpace=wrap;" vertex="1" parent="2FmigATYJ10FbjpoCft7-106">
          <mxGeometry x="60" width="120" height="20" as="geometry">
            <mxRectangle width="120" height="20" as="alternateBounds" />
          </mxGeometry>
        </mxCell>
        <mxCell id="2FmigATYJ10FbjpoCft7-109" value="" style="shape=tableRow;horizontal=0;startSize=0;swimlaneHead=0;swimlaneBody=0;fillColor=none;collapsible=0;dropTarget=0;points=[[0,0.5],[1,0.5]];portConstraint=eastwest;top=0;left=0;right=0;bottom=0;html=1;" vertex="1" parent="2FmigATYJ10FbjpoCft7-99">
          <mxGeometry y="80" width="180" height="30" as="geometry" />
        </mxCell>
        <mxCell id="2FmigATYJ10FbjpoCft7-110" value="" style="shape=partialRectangle;connectable=0;fillColor=none;top=0;left=0;bottom=0;right=0;editable=1;overflow=hidden;html=1;whiteSpace=wrap;" vertex="1" parent="2FmigATYJ10FbjpoCft7-109">
          <mxGeometry width="60" height="30" as="geometry">
            <mxRectangle width="60" height="30" as="alternateBounds" />
          </mxGeometry>
        </mxCell>
        <mxCell id="2FmigATYJ10FbjpoCft7-111" value="Date" style="shape=partialRectangle;connectable=0;fillColor=none;top=0;left=0;bottom=0;right=0;align=left;spacingLeft=6;overflow=hidden;html=1;whiteSpace=wrap;" vertex="1" parent="2FmigATYJ10FbjpoCft7-109">
          <mxGeometry x="60" width="120" height="30" as="geometry">
            <mxRectangle width="120" height="30" as="alternateBounds" />
          </mxGeometry>
        </mxCell>
        <mxCell id="2FmigATYJ10FbjpoCft7-112" value="" style="shape=tableRow;horizontal=0;startSize=0;swimlaneHead=0;swimlaneBody=0;fillColor=none;collapsible=0;dropTarget=0;points=[[0,0.5],[1,0.5]];portConstraint=eastwest;top=0;left=0;right=0;bottom=1;html=1;" vertex="1" parent="2FmigATYJ10FbjpoCft7-99">
          <mxGeometry y="110" width="180" height="20" as="geometry" />
        </mxCell>
        <mxCell id="2FmigATYJ10FbjpoCft7-113" value="MV" style="shape=partialRectangle;connectable=0;fillColor=none;top=0;left=0;bottom=0;right=0;fontStyle=1;overflow=hidden;html=1;whiteSpace=wrap;" vertex="1" parent="2FmigATYJ10FbjpoCft7-112">
          <mxGeometry width="60" height="20" as="geometry">
            <mxRectangle width="60" height="20" as="alternateBounds" />
          </mxGeometry>
        </mxCell>
        <mxCell id="2FmigATYJ10FbjpoCft7-114" value="Contact Number" style="shape=partialRectangle;connectable=0;fillColor=none;top=0;left=0;bottom=0;right=0;align=left;spacingLeft=6;fontStyle=5;overflow=hidden;html=1;whiteSpace=wrap;" vertex="1" parent="2FmigATYJ10FbjpoCft7-112">
          <mxGeometry x="60" width="120" height="20" as="geometry">
            <mxRectangle width="120" height="20" as="alternateBounds" />
          </mxGeometry>
        </mxCell>
        <mxCell id="2FmigATYJ10FbjpoCft7-115" value="" style="shape=tableRow;horizontal=0;startSize=0;swimlaneHead=0;swimlaneBody=0;fillColor=none;collapsible=0;dropTarget=0;points=[[0,0.5],[1,0.5]];portConstraint=eastwest;top=0;left=0;right=0;bottom=0;html=1;" vertex="1" parent="2FmigATYJ10FbjpoCft7-99">
          <mxGeometry y="130" width="180" height="30" as="geometry" />
        </mxCell>
        <mxCell id="2FmigATYJ10FbjpoCft7-116" value="" style="shape=partialRectangle;connectable=0;fillColor=none;top=0;left=0;bottom=0;right=0;editable=1;overflow=hidden;html=1;whiteSpace=wrap;" vertex="1" parent="2FmigATYJ10FbjpoCft7-115">
          <mxGeometry width="60" height="30" as="geometry">
            <mxRectangle width="60" height="30" as="alternateBounds" />
          </mxGeometry>
        </mxCell>
        <mxCell id="2FmigATYJ10FbjpoCft7-117" value="" style="shape=partialRectangle;connectable=0;fillColor=none;top=0;left=0;bottom=0;right=0;align=left;spacingLeft=6;overflow=hidden;html=1;whiteSpace=wrap;" vertex="1" parent="2FmigATYJ10FbjpoCft7-115">
          <mxGeometry x="60" width="120" height="30" as="geometry">
            <mxRectangle width="120" height="30" as="alternateBounds" />
          </mxGeometry>
        </mxCell>
        <mxCell id="2FmigATYJ10FbjpoCft7-118" value="Event" style="shape=table;startSize=40;container=1;collapsible=1;childLayout=tableLayout;fixedRows=1;rowLines=0;fontStyle=1;align=center;resizeLast=1;html=1;" vertex="1" parent="1">
          <mxGeometry x="1660" y="-70" width="180" height="190" as="geometry" />
        </mxCell>
        <mxCell id="2FmigATYJ10FbjpoCft7-119" value="" style="shape=tableRow;horizontal=0;startSize=0;swimlaneHead=0;swimlaneBody=0;fillColor=none;collapsible=0;dropTarget=0;points=[[0,0.5],[1,0.5]];portConstraint=eastwest;top=0;left=0;right=0;bottom=1;" vertex="1" parent="2FmigATYJ10FbjpoCft7-118">
          <mxGeometry y="40" width="180" height="30" as="geometry" />
        </mxCell>
        <mxCell id="2FmigATYJ10FbjpoCft7-120" value="PK" style="shape=partialRectangle;connectable=0;fillColor=none;top=0;left=0;bottom=0;right=0;fontStyle=1;overflow=hidden;whiteSpace=wrap;html=1;" vertex="1" parent="2FmigATYJ10FbjpoCft7-119">
          <mxGeometry width="30" height="30" as="geometry">
            <mxRectangle width="30" height="30" as="alternateBounds" />
          </mxGeometry>
        </mxCell>
        <mxCell id="2FmigATYJ10FbjpoCft7-121" value="Event ID" style="shape=partialRectangle;connectable=0;fillColor=none;top=0;left=0;bottom=0;right=0;align=left;spacingLeft=6;fontStyle=5;overflow=hidden;whiteSpace=wrap;html=1;" vertex="1" parent="2FmigATYJ10FbjpoCft7-119">
          <mxGeometry x="30" width="150" height="30" as="geometry">
            <mxRectangle width="150" height="30" as="alternateBounds" />
          </mxGeometry>
        </mxCell>
        <mxCell id="2FmigATYJ10FbjpoCft7-122" value="" style="shape=tableRow;horizontal=0;startSize=0;swimlaneHead=0;swimlaneBody=0;fillColor=none;collapsible=0;dropTarget=0;points=[[0,0.5],[1,0.5]];portConstraint=eastwest;top=0;left=0;right=0;bottom=0;" vertex="1" parent="2FmigATYJ10FbjpoCft7-118">
          <mxGeometry y="70" width="180" height="30" as="geometry" />
        </mxCell>
        <mxCell id="2FmigATYJ10FbjpoCft7-123" value="" style="shape=partialRectangle;connectable=0;fillColor=none;top=0;left=0;bottom=0;right=0;editable=1;overflow=hidden;whiteSpace=wrap;html=1;" vertex="1" parent="2FmigATYJ10FbjpoCft7-122">
          <mxGeometry width="30" height="30" as="geometry">
            <mxRectangle width="30" height="30" as="alternateBounds" />
          </mxGeometry>
        </mxCell>
        <mxCell id="2FmigATYJ10FbjpoCft7-124" value="Name" style="shape=partialRectangle;connectable=0;fillColor=none;top=0;left=0;bottom=0;right=0;align=left;spacingLeft=6;overflow=hidden;whiteSpace=wrap;html=1;" vertex="1" parent="2FmigATYJ10FbjpoCft7-122">
          <mxGeometry x="30" width="150" height="30" as="geometry">
            <mxRectangle width="150" height="30" as="alternateBounds" />
          </mxGeometry>
        </mxCell>
        <mxCell id="2FmigATYJ10FbjpoCft7-125" value="" style="shape=tableRow;horizontal=0;startSize=0;swimlaneHead=0;swimlaneBody=0;fillColor=none;collapsible=0;dropTarget=0;points=[[0,0.5],[1,0.5]];portConstraint=eastwest;top=0;left=0;right=0;bottom=0;" vertex="1" parent="2FmigATYJ10FbjpoCft7-118">
          <mxGeometry y="100" width="180" height="30" as="geometry" />
        </mxCell>
        <mxCell id="2FmigATYJ10FbjpoCft7-126" value="" style="shape=partialRectangle;connectable=0;fillColor=none;top=0;left=0;bottom=0;right=0;editable=1;overflow=hidden;whiteSpace=wrap;html=1;" vertex="1" parent="2FmigATYJ10FbjpoCft7-125">
          <mxGeometry width="30" height="30" as="geometry">
            <mxRectangle width="30" height="30" as="alternateBounds" />
          </mxGeometry>
        </mxCell>
        <mxCell id="2FmigATYJ10FbjpoCft7-127" value="Location" style="shape=partialRectangle;connectable=0;fillColor=none;top=0;left=0;bottom=0;right=0;align=left;spacingLeft=6;overflow=hidden;whiteSpace=wrap;html=1;" vertex="1" parent="2FmigATYJ10FbjpoCft7-125">
          <mxGeometry x="30" width="150" height="30" as="geometry">
            <mxRectangle width="150" height="30" as="alternateBounds" />
          </mxGeometry>
        </mxCell>
        <mxCell id="2FmigATYJ10FbjpoCft7-128" value="" style="shape=tableRow;horizontal=0;startSize=0;swimlaneHead=0;swimlaneBody=0;fillColor=none;collapsible=0;dropTarget=0;points=[[0,0.5],[1,0.5]];portConstraint=eastwest;top=0;left=0;right=0;bottom=0;" vertex="1" parent="2FmigATYJ10FbjpoCft7-118">
          <mxGeometry y="130" width="180" height="30" as="geometry" />
        </mxCell>
        <mxCell id="2FmigATYJ10FbjpoCft7-129" value="" style="shape=partialRectangle;connectable=0;fillColor=none;top=0;left=0;bottom=0;right=0;editable=1;overflow=hidden;whiteSpace=wrap;html=1;" vertex="1" parent="2FmigATYJ10FbjpoCft7-128">
          <mxGeometry width="30" height="30" as="geometry">
            <mxRectangle width="30" height="30" as="alternateBounds" />
          </mxGeometry>
        </mxCell>
        <mxCell id="2FmigATYJ10FbjpoCft7-130" value="" style="shape=partialRectangle;connectable=0;fillColor=none;top=0;left=0;bottom=0;right=0;align=left;spacingLeft=6;overflow=hidden;whiteSpace=wrap;html=1;" vertex="1" parent="2FmigATYJ10FbjpoCft7-128">
          <mxGeometry x="30" width="150" height="30" as="geometry">
            <mxRectangle width="150" height="30" as="alternateBounds" />
          </mxGeometry>
        </mxCell>
        <mxCell id="2FmigATYJ10FbjpoCft7-131" value="" style="shape=tableRow;horizontal=0;startSize=0;swimlaneHead=0;swimlaneBody=0;fillColor=none;collapsible=0;dropTarget=0;points=[[0,0.5],[1,0.5]];portConstraint=eastwest;top=0;left=0;right=0;bottom=1;" vertex="1" parent="2FmigATYJ10FbjpoCft7-118">
          <mxGeometry y="160" width="180" height="30" as="geometry" />
        </mxCell>
        <mxCell id="2FmigATYJ10FbjpoCft7-132" value="FK" style="shape=partialRectangle;connectable=0;fillColor=none;top=0;left=0;bottom=0;right=0;fontStyle=1;overflow=hidden;whiteSpace=wrap;html=1;" vertex="1" parent="2FmigATYJ10FbjpoCft7-131">
          <mxGeometry width="30" height="30" as="geometry">
            <mxRectangle width="30" height="30" as="alternateBounds" />
          </mxGeometry>
        </mxCell>
        <mxCell id="2FmigATYJ10FbjpoCft7-133" value="Constituency ID" style="shape=partialRectangle;connectable=0;fillColor=none;top=0;left=0;bottom=0;right=0;align=left;spacingLeft=6;fontStyle=5;overflow=hidden;whiteSpace=wrap;html=1;" vertex="1" parent="2FmigATYJ10FbjpoCft7-131">
          <mxGeometry x="30" width="150" height="30" as="geometry">
            <mxRectangle width="150" height="30" as="alternateBounds" />
          </mxGeometry>
        </mxCell>
        <mxCell id="2FmigATYJ10FbjpoCft7-135" value="" style="endArrow=none;html=1;rounded=0;exitX=0.996;exitY=1.03;exitDx=0;exitDy=0;exitPerimeter=0;entryX=-0.017;entryY=0.481;entryDx=0;entryDy=0;entryPerimeter=0;" edge="1" parent="1" source="2FmigATYJ10FbjpoCft7-45" target="2FmigATYJ10FbjpoCft7-49">
          <mxGeometry width="50" height="50" relative="1" as="geometry">
            <mxPoint x="2280" y="50" as="sourcePoint" />
            <mxPoint x="2330" as="targetPoint" />
          </mxGeometry>
        </mxCell>
        <mxCell id="2FmigATYJ10FbjpoCft7-136" value="1" style="edgeLabel;html=1;align=center;verticalAlign=middle;resizable=0;points=[];" vertex="1" connectable="0" parent="2FmigATYJ10FbjpoCft7-135">
          <mxGeometry x="-0.868" y="2" relative="1" as="geometry">
            <mxPoint as="offset" />
          </mxGeometry>
        </mxCell>
        <mxCell id="2FmigATYJ10FbjpoCft7-137" value="M" style="edgeLabel;html=1;align=center;verticalAlign=middle;resizable=0;points=[];" vertex="1" connectable="0" parent="2FmigATYJ10FbjpoCft7-135">
          <mxGeometry x="0.8933" relative="1" as="geometry">
            <mxPoint as="offset" />
          </mxGeometry>
        </mxCell>
        <mxCell id="2FmigATYJ10FbjpoCft7-138" value="" style="endArrow=none;html=1;rounded=0;entryX=0.628;entryY=1.014;entryDx=0;entryDy=0;entryPerimeter=0;exitX=0.477;exitY=-0.006;exitDx=0;exitDy=0;exitPerimeter=0;" edge="1" parent="1" source="2FmigATYJ10FbjpoCft7-32" target="2FmigATYJ10FbjpoCft7-45">
          <mxGeometry width="50" height="50" relative="1" as="geometry">
            <mxPoint x="2160" y="503.3333333333333" as="sourcePoint" />
            <mxPoint x="2243" y="68" as="targetPoint" />
          </mxGeometry>
        </mxCell>
        <mxCell id="2FmigATYJ10FbjpoCft7-139" value="1" style="edgeLabel;html=1;align=center;verticalAlign=middle;resizable=0;points=[];" vertex="1" connectable="0" parent="2FmigATYJ10FbjpoCft7-138">
          <mxGeometry x="-0.868" y="2" relative="1" as="geometry">
            <mxPoint as="offset" />
          </mxGeometry>
        </mxCell>
        <mxCell id="2FmigATYJ10FbjpoCft7-140" value="M" style="edgeLabel;html=1;align=center;verticalAlign=middle;resizable=0;points=[];" vertex="1" connectable="0" parent="2FmigATYJ10FbjpoCft7-138">
          <mxGeometry x="0.8933" relative="1" as="geometry">
            <mxPoint as="offset" />
          </mxGeometry>
        </mxCell>
        <mxCell id="2FmigATYJ10FbjpoCft7-141" value="" style="endArrow=none;html=1;rounded=0;entryX=0.488;entryY=1.041;entryDx=0;entryDy=0;entryPerimeter=0;exitX=0.537;exitY=-0.016;exitDx=0;exitDy=0;exitPerimeter=0;" edge="1" parent="1" source="2FmigATYJ10FbjpoCft7-64" target="2FmigATYJ10FbjpoCft7-61">
          <mxGeometry width="50" height="50" relative="1" as="geometry">
            <mxPoint x="2220" y="330" as="sourcePoint" />
            <mxPoint x="2353" y="248" as="targetPoint" />
          </mxGeometry>
        </mxCell>
        <mxCell id="2FmigATYJ10FbjpoCft7-142" value="M" style="edgeLabel;html=1;align=center;verticalAlign=middle;resizable=0;points=[];" vertex="1" connectable="0" parent="2FmigATYJ10FbjpoCft7-141">
          <mxGeometry x="-0.868" y="2" relative="1" as="geometry">
            <mxPoint as="offset" />
          </mxGeometry>
        </mxCell>
        <mxCell id="2FmigATYJ10FbjpoCft7-143" value="M" style="edgeLabel;html=1;align=center;verticalAlign=middle;resizable=0;points=[];" vertex="1" connectable="0" parent="2FmigATYJ10FbjpoCft7-141">
          <mxGeometry x="0.8933" relative="1" as="geometry">
            <mxPoint as="offset" />
          </mxGeometry>
        </mxCell>
        <mxCell id="2FmigATYJ10FbjpoCft7-144" value="" style="endArrow=none;html=1;rounded=0;entryX=0.529;entryY=-0.006;entryDx=0;entryDy=0;entryPerimeter=0;exitX=1.017;exitY=0.798;exitDx=0;exitDy=0;exitPerimeter=0;" edge="1" parent="1" source="2FmigATYJ10FbjpoCft7-52" target="2FmigATYJ10FbjpoCft7-83">
          <mxGeometry width="50" height="50" relative="1" as="geometry">
            <mxPoint x="2740" y="50" as="sourcePoint" />
            <mxPoint x="2976" y="-236" as="targetPoint" />
          </mxGeometry>
        </mxCell>
        <mxCell id="2FmigATYJ10FbjpoCft7-145" value="M" style="edgeLabel;html=1;align=center;verticalAlign=middle;resizable=0;points=[];" vertex="1" connectable="0" parent="2FmigATYJ10FbjpoCft7-144">
          <mxGeometry x="-0.868" y="2" relative="1" as="geometry">
            <mxPoint as="offset" />
          </mxGeometry>
        </mxCell>
        <mxCell id="2FmigATYJ10FbjpoCft7-146" value="M" style="edgeLabel;html=1;align=center;verticalAlign=middle;resizable=0;points=[];" vertex="1" connectable="0" parent="2FmigATYJ10FbjpoCft7-144">
          <mxGeometry x="0.8933" relative="1" as="geometry">
            <mxPoint as="offset" />
          </mxGeometry>
        </mxCell>
        <mxCell id="2FmigATYJ10FbjpoCft7-147" value="" style="endArrow=none;html=1;rounded=0;exitX=0.667;exitY=1.167;exitDx=0;exitDy=0;exitPerimeter=0;entryX=0.55;entryY=-0.006;entryDx=0;entryDy=0;entryPerimeter=0;" edge="1" parent="1" source="2FmigATYJ10FbjpoCft7-61" target="2FmigATYJ10FbjpoCft7-99">
          <mxGeometry width="50" height="50" relative="1" as="geometry">
            <mxPoint x="2540" y="280" as="sourcePoint" />
            <mxPoint x="2693" y="318" as="targetPoint" />
          </mxGeometry>
        </mxCell>
        <mxCell id="2FmigATYJ10FbjpoCft7-148" value="1" style="edgeLabel;html=1;align=center;verticalAlign=middle;resizable=0;points=[];" vertex="1" connectable="0" parent="2FmigATYJ10FbjpoCft7-147">
          <mxGeometry x="-0.868" y="2" relative="1" as="geometry">
            <mxPoint as="offset" />
          </mxGeometry>
        </mxCell>
        <mxCell id="2FmigATYJ10FbjpoCft7-149" value="M" style="edgeLabel;html=1;align=center;verticalAlign=middle;resizable=0;points=[];" vertex="1" connectable="0" parent="2FmigATYJ10FbjpoCft7-147">
          <mxGeometry x="0.8933" relative="1" as="geometry">
            <mxPoint as="offset" />
          </mxGeometry>
        </mxCell>
        <mxCell id="2FmigATYJ10FbjpoCft7-151" value="" style="endArrow=none;html=1;rounded=0;exitX=1.024;exitY=0.136;exitDx=0;exitDy=0;exitPerimeter=0;" edge="1" parent="1" source="2FmigATYJ10FbjpoCft7-118">
          <mxGeometry width="50" height="50" relative="1" as="geometry">
            <mxPoint x="1760" y="-300" as="sourcePoint" />
            <mxPoint x="2030" y="-120" as="targetPoint" />
          </mxGeometry>
        </mxCell>
        <mxCell id="2FmigATYJ10FbjpoCft7-152" value="1" style="edgeLabel;html=1;align=center;verticalAlign=middle;resizable=0;points=[];" vertex="1" connectable="0" parent="2FmigATYJ10FbjpoCft7-151">
          <mxGeometry x="-0.868" y="2" relative="1" as="geometry">
            <mxPoint as="offset" />
          </mxGeometry>
        </mxCell>
        <mxCell id="2FmigATYJ10FbjpoCft7-153" value="1" style="edgeLabel;html=1;align=center;verticalAlign=middle;resizable=0;points=[];" vertex="1" connectable="0" parent="2FmigATYJ10FbjpoCft7-151">
          <mxGeometry x="0.8933" relative="1" as="geometry">
            <mxPoint as="offset" />
          </mxGeometry>
        </mxCell>
        <mxCell id="2FmigATYJ10FbjpoCft7-155" value="" style="endArrow=none;html=1;rounded=0;exitX=0.039;exitY=-0.026;exitDx=0;exitDy=0;exitPerimeter=0;entryX=0.486;entryY=0.986;entryDx=0;entryDy=0;entryPerimeter=0;" edge="1" parent="1" source="2FmigATYJ10FbjpoCft7-32" target="2FmigATYJ10FbjpoCft7-131">
          <mxGeometry width="50" height="50" relative="1" as="geometry">
            <mxPoint x="1540" y="170" as="sourcePoint" />
            <mxPoint x="1750" y="130" as="targetPoint" />
          </mxGeometry>
        </mxCell>
        <mxCell id="2FmigATYJ10FbjpoCft7-156" value="1" style="edgeLabel;html=1;align=center;verticalAlign=middle;resizable=0;points=[];" vertex="1" connectable="0" parent="2FmigATYJ10FbjpoCft7-155">
          <mxGeometry x="-0.868" y="2" relative="1" as="geometry">
            <mxPoint as="offset" />
          </mxGeometry>
        </mxCell>
        <mxCell id="2FmigATYJ10FbjpoCft7-157" value="1" style="edgeLabel;html=1;align=center;verticalAlign=middle;resizable=0;points=[];" vertex="1" connectable="0" parent="2FmigATYJ10FbjpoCft7-155">
          <mxGeometry x="0.8933" relative="1" as="geometry">
            <mxPoint as="offset" />
          </mxGeometry>
        </mxCell>
        <mxCell id="2FmigATYJ10FbjpoCft7-158" value="" style="endArrow=none;html=1;rounded=0;exitX=1;exitY=0;exitDx=0;exitDy=0;entryX=-0.016;entryY=0.063;entryDx=0;entryDy=0;entryPerimeter=0;" edge="1" parent="1" source="2FmigATYJ10FbjpoCft7-15" target="2FmigATYJ10FbjpoCft7-8">
          <mxGeometry width="50" height="50" relative="1" as="geometry">
            <mxPoint x="2140" y="-480" as="sourcePoint" />
            <mxPoint x="2320" y="-460" as="targetPoint" />
          </mxGeometry>
        </mxCell>
        <mxCell id="2FmigATYJ10FbjpoCft7-159" value="1" style="edgeLabel;html=1;align=center;verticalAlign=middle;resizable=0;points=[];" vertex="1" connectable="0" parent="2FmigATYJ10FbjpoCft7-158">
          <mxGeometry x="-0.868" y="2" relative="1" as="geometry">
            <mxPoint as="offset" />
          </mxGeometry>
        </mxCell>
        <mxCell id="2FmigATYJ10FbjpoCft7-160" value="M" style="edgeLabel;html=1;align=center;verticalAlign=middle;resizable=0;points=[];" vertex="1" connectable="0" parent="2FmigATYJ10FbjpoCft7-158">
          <mxGeometry x="0.8933" relative="1" as="geometry">
            <mxPoint as="offset" />
          </mxGeometry>
        </mxCell>
      </root>
    </mxGraphModel>
  </diagram>
</mxfile>
